<?xml version="1.0" standalone="no"?>
<!DOCTYPE svg PUBLIC "-//W3C//DTD SVG 20010904//EN"
 "http://www.w3.org/TR/2001/REC-SVG-20010904/DTD/svg10.dtd">
<svg version="1.0" xmlns="http://www.w3.org/2000/svg"
 width="1080.000000pt" height="1080.000000pt" viewBox="0 0 1080.000000 1080.000000"
 preserveAspectRatio="xMidYMid meet">

<g transform="translate(0.000000,1080.000000) scale(0.100000,-0.100000)"
fill="#000000" stroke="none">
<path d="M1940 9487 c0 -1 -18 -72 -40 -157 -22 -85 -40 -161 -40 -167 0 -8
12 -13 29 -13 l29 0 41 165 c22 90 41 167 41 170 0 3 -13 5 -30 5 -16 0 -30
-1 -30 -3z"/>
<path d="M4021 9411 c-13 -24 8 -55 34 -50 28 6 42 34 26 53 -18 22 -48 20
-60 -3z"/>
<path d="M2197 9360 c-36 -31 -57 -85 -57 -144 0 -70 68 -107 130 -71 32 18
41 18 34 0 -5 -11 1 -15 25 -15 33 0 28 -12 71 158 11 46 18 87 15 92 -10 16
-55 12 -55 -5 0 -8 -3 -15 -6 -15 -3 0 -12 7 -20 15 -9 9 -34 15 -59 15 -35 0
-52 -6 -78 -30z m123 -30 c11 -11 20 -26 20 -32 0 -34 -23 -89 -43 -103 -26
-18 -68 -20 -85 -3 -28 28 -1 126 41 146 32 16 45 14 67 -8z"/>
<path d="M2505 9368 c-18 -52 -55 -223 -51 -234 3 -8 14 -14 25 -14 15 0 23
10 31 43 30 117 42 147 60 157 27 14 67 12 73 -4 3 -7 -5 -55 -18 -105 l-23
-92 31 3 c29 3 31 6 53 88 28 106 62 140 108 107 17 -12 16 -18 -7 -110 l-25
-98 31 3 c30 3 31 5 54 93 12 50 23 99 23 111 0 50 -84 73 -131 35 -23 -18
-23 -18 -42 5 -24 30 -74 32 -111 3 l-26 -20 0 20 c0 16 -6 21 -25 21 -14 0
-28 -6 -30 -12z"/>
<path d="M3038 9183 c-25 -98 -45 -178 -44 -179 0 -1 13 -4 27 -8 26 -6 27 -4
44 64 9 39 21 70 26 70 5 0 9 -4 9 -9 0 -5 13 -14 30 -21 83 -35 169 48 170
163 0 38 -5 53 -26 74 -21 21 -32 24 -61 20 -20 -4 -44 -14 -54 -23 -18 -16
-19 -16 -19 4 0 17 -6 22 -29 22 l-28 0 -45 -177z m183 117 c24 -13 26 -68 4
-110 -45 -87 -140 -49 -114 45 18 64 62 90 110 65z"/>
<path d="M3431 9333 c-67 -35 -105 -164 -66 -220 24 -34 80 -40 115 -14 36 26
43 26 35 1 -5 -17 -2 -20 23 -20 29 0 30 1 61 118 17 65 31 124 31 130 0 7
-13 12 -30 12 -20 0 -30 -5 -30 -15 0 -19 -10 -19 -24 0 -18 25 -76 28 -115 8z
m108 -64 c13 -24 13 -31 -3 -73 -20 -52 -49 -72 -90 -62 -32 8 -43 45 -27 97
21 69 90 91 120 38z"/>
<path d="M3690 9315 c0 -8 7 -65 16 -126 8 -62 13 -122 10 -134 -7 -26 -49
-47 -80 -39 -17 4 -25 -1 -34 -20 -10 -23 -9 -25 18 -31 40 -9 91 9 122 43 25
26 198 294 198 306 0 3 -13 6 -28 6 -24 0 -35 -11 -82 -89 -30 -49 -57 -88
-61 -85 -4 2 -10 44 -14 94 l-7 90 -29 0 c-19 0 -29 -5 -29 -15z"/>
<path d="M4623 9311 c-10 -15 -20 -18 -59 -13 -96 10 -166 -68 -119 -135 14
-20 14 -22 -5 -28 -28 -9 -43 -40 -31 -64 9 -16 7 -20 -14 -25 -56 -14 -55
-79 1 -102 73 -31 179 -9 203 42 26 59 4 88 -79 101 -73 11 -76 36 -5 43 85
10 119 41 114 105 -3 25 2 38 20 53 14 10 21 24 17 30 -11 18 -30 14 -43 -7z
m-45 -79 c5 -32 -26 -64 -57 -60 -20 2 -27 9 -29 31 -5 39 15 59 52 55 24 -2
32 -8 34 -26z m-37 -208 c11 -14 10 -19 -10 -35 -52 -42 -154 -6 -109 39 18
18 103 15 119 -4z"/>
<path d="M3972 9198 c-31 -125 -31 -137 8 -138 14 0 21 23 78 243 3 13 -2 17
-26 17 l-30 0 -30 -122z"/>
<path d="M4116 9198 c-16 -62 -31 -119 -34 -125 -3 -9 6 -13 27 -13 32 0 33 2
57 105 18 77 63 117 105 95 24 -13 24 -44 0 -137 l-19 -73 28 0 c26 0 30 5 44
53 39 136 40 174 2 199 -22 15 -82 8 -104 -12 -12 -11 -24 -20 -27 -20 -4 0
-3 9 0 20 5 17 2 20 -22 20 -27 0 -29 -3 -57 -112z"/>
<path d="M1921 8784 c-26 -19 -51 -71 -51 -108 0 -13 -7 -26 -15 -30 -23 -9
-19 -46 6 -46 16 0 19 -4 14 -22 -4 -13 -17 -33 -30 -45 -13 -12 -27 -33 -31
-47 l-6 -26 106 0 c93 0 109 3 126 20 25 25 25 37 1 49 -14 8 -22 7 -31 -4 -8
-10 -30 -15 -61 -15 -50 0 -60 8 -35 30 8 6 16 21 18 33 2 18 11 23 43 25 36
3 54 15 55 34 0 4 -21 8 -47 10 -44 3 -48 5 -51 31 -5 44 22 77 63 77 20 0 44
-6 55 -12 16 -11 23 -10 37 5 17 18 17 19 -6 38 -30 25 -126 27 -160 3z"/>
<path d="M2655 8791 c-28 -12 -51 -41 -59 -73 -4 -18 -13 -28 -25 -28 -10 0
-21 -9 -24 -20 -4 -15 0 -20 15 -20 14 0 18 -5 14 -17 -3 -10 -14 -56 -26
-102 -22 -87 -19 -106 16 -99 15 2 25 26 45 103 l25 100 41 3 c34 3 42 7 46
28 4 22 1 24 -34 24 -42 0 -49 13 -26 44 10 14 22 17 46 14 24 -4 34 0 42 15
6 10 8 21 6 24 -10 9 -82 13 -102 4z"/>
<path d="M2202 8770 c-30 -18 -32 -23 -21 -38 7 -9 14 -18 15 -20 1 -2 14 4
27 13 15 9 40 15 59 13 26 -2 34 -8 36 -26 5 -35 -25 -62 -68 -62 -25 0 -40
-5 -44 -16 -11 -29 -6 -34 33 -34 46 0 66 -19 57 -55 -15 -58 -105 -71 -128
-19 -7 15 -17 23 -26 19 -7 -3 -18 -5 -23 -5 -18 0 -9 -41 15 -65 47 -47 147
-42 195 9 12 13 25 42 28 64 4 32 1 44 -17 62 -18 18 -20 24 -9 31 8 5 18 9
22 9 18 0 37 69 27 95 -18 48 -118 61 -178 25z"/>
<path d="M2793 8660 c-43 -26 -66 -74 -67 -137 -1 -70 22 -95 96 -101 44 -3
59 0 87 20 72 49 96 161 45 212 -22 21 -36 26 -78 26 -33 0 -62 -7 -83 -20z
m106 -36 c20 -14 23 -23 18 -61 -6 -57 -39 -93 -83 -93 -88 0 -54 159 36 169
3 1 16 -6 29 -15z"/>
<path d="M3052 8548 c-32 -125 -31 -137 9 -138 11 0 20 21 33 76 21 90 48 125
95 127 25 2 36 8 42 25 6 17 5 24 -6 29 -18 6 -75 -15 -75 -28 0 -5 -5 -9 -11
-9 -6 0 -8 9 -4 20 5 17 2 20 -23 20 -29 0 -30 -1 -60 -122z"/>
<path d="M3407 8653 c-3 -5 -17 -56 -32 -113 -14 -58 -28 -113 -31 -122 -4
-14 1 -18 25 -18 33 0 30 -4 61 122 14 55 48 91 82 86 36 -5 34 -57 -8 -200
-4 -14 1 -18 24 -18 28 0 30 3 53 87 26 97 47 126 87 121 42 -5 42 -33 -4
-190 -4 -14 1 -18 25 -18 27 0 31 5 40 38 38 145 41 161 32 185 -16 42 -66 49
-119 17 -27 -17 -34 -18 -38 -6 -13 33 -100 40 -125 10 -15 -19 -30 -18 -23 1
4 8 2 15 -4 15 -6 0 -17 3 -25 6 -8 3 -17 2 -20 -3z"/>
<path d="M3840 8615 c0 -13 7 -75 16 -136 l15 -112 -23 -24 c-17 -19 -31 -24
-55 -21 -25 3 -34 -1 -42 -19 -9 -20 -7 -24 14 -29 42 -11 90 5 122 39 27 28
203 299 203 312 0 3 -13 5 -29 5 -25 0 -34 -10 -82 -90 -30 -49 -57 -90 -60
-90 -4 0 -10 30 -13 68 -11 112 -15 122 -42 122 -19 0 -24 -5 -24 -25z"/>
<path d="M2520 8110 c-40 -10 -70 -42 -70 -76 0 -17 -6 -24 -20 -24 -28 0 -38
-29 -16 -45 16 -12 16 -18 -4 -96 -12 -46 -23 -92 -26 -101 -4 -14 1 -18 25
-18 33 0 29 -8 67 143 l16 67 38 0 c25 0 40 5 44 16 9 23 8 24 -13 24 -32 0
-51 11 -51 30 0 26 26 43 58 37 21 -4 31 -1 40 13 6 11 8 21 4 23 -19 11 -60
14 -92 7z"/>
<path d="M2695 8096 c-29 -13 -55 -51 -55 -81 0 -8 -9 -15 -19 -15 -10 0 -22
-7 -25 -16 -9 -22 -8 -24 9 -24 20 0 19 -16 -6 -112 -22 -90 -20 -111 13 -106
19 3 26 16 47 105 l25 102 40 3 c34 2 42 7 44 26 3 19 -1 22 -32 22 -29 0 -36
4 -36 19 0 27 26 44 58 38 21 -4 31 -1 40 13 22 36 -43 52 -103 26z"/>
<path d="M3531 8051 c-13 -24 8 -55 34 -50 28 6 42 34 26 53 -18 22 -48 20
-60 -3z"/>
<path d="M1878 8013 c-14 -9 -35 -33 -46 -52 -58 -107 -20 -191 87 -191 31 0
48 7 73 30 32 29 32 31 14 45 -18 13 -22 13 -41 -5 -29 -27 -71 -26 -90 3 -17
27 -6 81 24 118 22 28 78 31 97 5 11 -16 15 -16 40 -3 l28 14 -27 27 c-22 22
-35 26 -79 26 -31 0 -64 -7 -80 -17z"/>
<path d="M2152 8000 c-39 -24 -71 -89 -72 -143 0 -30 7 -46 30 -69 29 -28 35
-30 90 -26 68 5 93 22 121 83 45 97 5 175 -88 175 -30 0 -60 -7 -81 -20z m116
-42 c19 -19 14 -72 -10 -108 -28 -40 -57 -52 -89 -36 -61 30 -17 156 55 156
17 0 37 -5 44 -12z"/>
<path d="M2842 7970 c-36 -22 -71 -88 -72 -133 0 -35 24 -83 49 -97 37 -19
107 -12 138 14 27 23 27 26 11 42 -16 17 -19 17 -36 1 -26 -24 -79 -22 -92 2
-18 35 -12 41 45 41 69 0 109 20 124 61 12 35 2 62 -29 79 -31 17 -102 12
-138 -10z m102 -26 c20 -8 20 -28 0 -48 -17 -18 -104 -22 -104 -6 0 6 11 22
25 35 24 25 49 31 79 19z"/>
<path d="M3140 7962 c-78 -41 -104 -169 -45 -219 45 -39 175 -22 175 23 0 22
-22 26 -61 10 -43 -18 -82 -3 -87 32 -3 20 0 22 22 16 41 -10 125 15 143 42
22 35 19 75 -7 96 -29 23 -95 23 -140 0z m104 -45 c16 -26 -16 -47 -71 -47
-45 0 -51 6 -30 32 31 39 81 47 101 15z"/>
<path d="M3486 7858 c-14 -57 -29 -113 -32 -125 -6 -20 -3 -23 24 -23 29 0 30
1 56 108 15 59 29 115 32 125 4 13 -1 17 -24 17 -28 0 -30 -2 -56 -102z"/>
<path d="M3655 7948 c-2 -7 -17 -66 -34 -130 l-29 -118 28 0 c31 0 30 -1 64
122 17 60 43 88 82 88 42 0 46 -21 23 -114 -12 -48 -20 -89 -17 -91 2 -3 15
-6 28 -7 22 -3 25 3 49 99 23 96 24 102 8 127 -25 37 -63 44 -109 18 -37 -20
-38 -20 -38 -1 0 14 -7 19 -25 19 -14 0 -28 -6 -30 -12z"/>
<path d="M7715 7781 c-33 -4 -76 -13 -95 -19 -19 -6 -64 -14 -100 -17 -36 -4
-81 -14 -100 -23 -19 -8 -38 -14 -43 -13 -15 3 -113 -52 -177 -99 -36 -27 -89
-73 -118 -104 -55 -57 -110 -146 -90 -146 7 0 5 -7 -4 -17 -36 -43 -52 -112
-63 -283 -2 -30 -6 -64 -8 -75 -3 -11 -1 -45 5 -75 5 -30 11 -79 13 -108 2
-30 8 -59 13 -65 5 -7 9 -25 10 -41 1 -17 6 -32 11 -35 7 -5 22 -48 26 -76 1
-5 5 -19 9 -30 17 -45 25 -72 31 -105 4 -19 13 -45 21 -57 8 -12 11 -30 7 -39
-4 -11 -2 -15 4 -11 6 4 13 -6 17 -24 4 -19 13 -33 26 -36 11 -3 20 -11 20
-17 0 -7 9 -22 19 -33 25 -26 51 -88 51 -119 0 -12 4 -25 9 -28 21 -13 -4 186
-55 424 -14 69 -26 131 -27 138 0 6 -4 12 -9 12 -4 0 -7 6 -5 13 1 6 -4 11
-11 9 -9 -2 -11 2 -5 13 10 17 4 97 -6 91 -25 -16 19 217 53 283 22 41 167
176 206 191 19 7 42 19 50 26 8 7 53 29 100 49 47 20 93 40 103 45 11 7 17 7
17 0 0 -7 6 -7 18 -1 11 6 27 10 38 10 10 0 33 2 49 6 49 9 337 13 385 5 80
-14 95 -19 108 -37 14 -20 43 -24 55 -8 4 5 7 -1 5 -15 -2 -15 2 -24 8 -23 8
1 10 -6 6 -19 -3 -12 -1 -19 4 -16 5 4 10 -7 11 -24 2 -27 1 -28 -14 -16 -15
11 -15 11 -6 -6 6 -12 7 -31 3 -48 -5 -15 -6 -28 -2 -28 4 0 16 -18 26 -40 11
-22 30 -47 43 -55 21 -14 35 -43 14 -30 -9 5 -7 -27 2 -43 3 -4 8 -32 12 -62
4 -30 11 -63 16 -73 6 -9 7 -21 4 -26 -3 -5 1 -12 7 -15 7 -3 2 -3 -12 0 -14
2 -39 6 -56 8 -17 2 -36 6 -41 9 -5 3 -25 -2 -44 -12 -19 -10 -68 -23 -108
-30 -41 -6 -80 -16 -85 -20 -6 -5 -30 -11 -53 -14 -55 -7 -93 -35 -92 -67 1
-14 0 -29 -2 -35 -12 -49 4 -176 27 -212 16 -25 36 -31 31 -10 -1 6 4 11 11
10 6 -2 12 6 12 16 0 11 5 23 11 27 6 3 19 20 30 38 l19 31 -6 -34 -7 -33 27
17 c14 9 26 24 26 32 0 8 4 11 10 8 5 -3 8 0 5 7 -6 15 24 36 68 49 23 6 28 5
23 -6 -7 -19 27 -29 69 -21 26 5 39 2 54 -13 20 -20 138 -52 209 -55 23 -2 48
-8 54 -14 7 -7 8 -12 3 -12 -6 0 -4 -4 4 -9 21 -14 31 -142 17 -221 -5 -25 -9
-50 -9 -57 0 -7 -4 -10 -8 -7 -4 2 -10 0 -14 -6 -3 -5 -2 -10 4 -10 13 0 5
-42 -11 -52 -10 -6 -10 -8 0 -8 10 0 10 -4 -1 -21 -8 -11 -13 -29 -10 -40 5
-18 -4 -23 -44 -22 -7 0 -11 -8 -10 -20 1 -11 -4 -22 -10 -24 -7 -3 -13 0 -13
7 0 6 5 8 12 4 7 -4 8 -3 4 4 -5 9 -12 8 -27 -1 -10 -6 -15 -13 -9 -15 5 -2
10 -11 10 -20 0 -15 -2 -15 -10 -2 -9 13 -10 13 -10 0 -1 -12 -2 -12 -10 2
-13 21 -46 16 -42 -6 2 -9 -4 -16 -14 -16 -10 0 -14 -5 -11 -15 9 -21 -9 -27
-24 -8 -10 12 -10 14 -1 9 6 -4 12 -2 12 3 0 6 -13 11 -30 11 -16 0 -30 -4
-30 -10 0 -5 -7 -10 -15 -10 -8 0 -15 -4 -15 -10 0 -5 9 -10 20 -10 11 0 20
-5 20 -11 0 -6 -7 -9 -15 -5 -8 3 -15 2 -15 -3 0 -4 -37 -13 -81 -20 -45 -7
-122 -26 -171 -42 -49 -16 -98 -29 -108 -29 -46 0 -220 -73 -206 -87 1 -1 42
13 92 33 49 19 121 39 159 44 39 5 86 14 105 20 45 12 140 10 159 -4 11 -8 13
-8 7 2 -5 8 0 12 16 12 22 0 21 -1 -7 -19 -16 -11 -43 -21 -60 -24 -16 -2 -45
-11 -64 -19 -18 -8 -47 -14 -64 -12 -16 2 -37 -2 -45 -9 -8 -6 -17 -11 -19 -9
-8 6 -43 1 -41 -5 1 -5 -3 -17 -9 -29 -6 -11 -8 -26 -4 -32 12 -20 38 -4 56
34 20 43 42 45 37 2 -1 -3 5 -11 12 -17 9 -8 26 -7 62 3 27 8 68 17 91 21 33
5 42 11 47 31 4 14 16 26 31 30 14 3 25 10 25 15 0 5 6 9 13 9 7 0 23 9 35 20
24 23 36 26 27 8 -4 -7 3 -2 14 11 12 13 21 20 21 16 0 -5 8 -1 18 8 9 8 21
16 27 16 5 0 12 8 16 18 4 10 8 14 8 9 1 -5 7 -4 14 2 9 8 13 4 13 -19 1 -16
-3 -29 -8 -29 -6 0 -8 -9 -5 -19 3 -11 -3 -28 -15 -40 -21 -23 -33 -28 -22 -8
6 8 3 8 -9 -1 -9 -8 -15 -17 -14 -20 6 -19 -20 -11 -30 9 -11 21 -18 19 -14
-3 0 -5 -3 -8 -8 -8 -4 0 -8 -8 -7 -17 0 -10 -2 -18 -5 -18 -4 0 -16 -8 -26
-18 -11 -9 -23 -14 -28 -10 -5 5 13 -18 40 -49 26 -32 52 -55 56 -53 10 7 79
-59 79 -75 0 -16 -109 -8 -155 11 -17 7 -33 11 -38 11 -4 -1 -12 10 -18 25 -8
20 -13 24 -16 13 -12 -33 -35 -50 -54 -39 -13 7 -26 6 -40 -1 -15 -9 -24 -8
-36 1 -13 11 -14 7 -8 -33 8 -55 0 -75 -22 -56 -14 11 -15 10 -10 -7 3 -11 8
-35 12 -52 4 -18 10 -35 15 -38 4 -3 31 7 60 21 55 28 249 84 290 84 14 0 40
-14 59 -30 18 -17 39 -30 45 -30 36 -1 249 -177 255 -211 10 -53 11 -209 2
-209 -6 0 -10 18 -9 42 1 24 -3 43 -10 46 -6 2 -14 19 -18 38 -3 18 -10 31
-15 28 -13 -8 -97 34 -108 53 -6 12 -12 10 -30 -16 -12 -17 -28 -31 -34 -31
-7 -1 -30 -9 -52 -20 -22 -11 -46 -19 -54 -20 -11 0 -10 -5 4 -20 15 -17 16
-24 7 -46 -7 -13 -12 -33 -12 -44 0 -10 -9 -25 -21 -33 -11 -8 -16 -18 -11
-21 6 -3 13 2 17 12 6 16 7 16 19 0 7 -10 16 -15 19 -11 4 3 -1 12 -11 19 -9
7 -12 14 -6 14 7 0 14 9 17 20 3 11 11 20 17 20 7 0 10 -8 7 -20 -6 -24 1 -25
25 -3 10 9 21 14 24 10 10 -9 -68 -88 -82 -83 -7 3 -15 -2 -18 -10 -8 -21 -8
-21 9 -21 8 0 15 4 15 9 0 4 5 8 11 8 8 0 9 -4 0 -13 -6 -8 -8 -16 -5 -20 3
-3 -3 -3 -15 0 -18 5 -21 1 -21 -28 -1 -163 -26 -319 -52 -319 -6 0 -9 -3 -6
-6 4 -3 -5 -30 -18 -60 -13 -30 -24 -63 -24 -73 0 -21 -23 -44 -33 -34 -4 3
-7 1 -7 -5 0 -7 -11 -12 -23 -12 -13 0 -32 -9 -42 -20 -10 -11 -24 -20 -32
-20 -20 0 -15 -21 7 -27 20 -5 27 -27 11 -37 -5 -3 -8 -16 -8 -29 0 -34 -23
-199 -30 -217 -4 -8 -7 -58 -9 -110 -2 -103 -7 -161 -17 -200 -4 -14 -8 -39
-11 -56 -2 -17 -9 -41 -15 -53 -7 -11 -8 -21 -3 -21 5 0 0 -42 -10 -92 -25
-122 -23 -116 -31 -124 -4 -4 -7 -18 -7 -30 0 -13 -4 -25 -10 -29 -5 -3 -7
-12 -3 -20 6 -17 -17 -105 -28 -105 -4 0 -10 -7 -13 -16 -5 -12 -2 -15 11 -10
15 6 15 5 -1 -13 -11 -12 -16 -27 -12 -37 4 -10 2 -20 -4 -24 -5 -3 -11 -19
-13 -36 -2 -16 -7 -36 -12 -43 -5 -10 -4 -12 3 -7 8 5 10 2 6 -8 -3 -8 -14
-18 -25 -21 -21 -7 -25 -25 -7 -43 8 -8 8 -15 0 -25 -7 -8 -8 -24 -3 -43 6
-24 3 -32 -15 -46 -12 -10 -27 -18 -33 -18 -7 0 -7 -9 0 -29 8 -22 7 -36 -3
-53 -13 -22 -14 -29 -17 -56 0 -7 -6 -10 -12 -6 -6 3 -8 15 -6 26 4 14 0 22
-14 25 -10 3 -19 11 -19 18 0 7 -7 18 -15 25 -8 7 -12 16 -9 21 3 5 0 9 -6 9
-19 0 -37 24 -33 45 2 11 1 14 -3 7 -3 -6 -11 -9 -17 -5 -6 4 -8 0 -4 -10 3
-10 2 -17 -3 -17 -6 0 -10 3 -10 8 -1 4 -12 21 -25 37 l-25 30 13 -34 c10 -28
10 -35 -1 -39 -10 -3 -10 -7 -1 -18 6 -8 15 -11 20 -8 12 7 39 -20 39 -38 0
-8 -10 -14 -21 -15 -20 -2 -20 -1 -4 11 17 12 17 13 1 19 -9 4 -15 3 -11 -2 3
-5 1 -11 -5 -13 -5 -1 -12 -19 -14 -38 -3 -19 -5 -36 -5 -38 -3 -11 -44 24
-56 48 -9 17 -21 30 -27 30 -7 0 -5 -7 5 -17 8 -10 17 -27 19 -38 1 -11 12
-23 23 -27 16 -5 13 -6 -11 -7 -28 -1 -30 -4 -30 -35 1 -21 5 -32 12 -29 7 3
11 -5 10 -20 -1 -21 -4 -23 -15 -14 -12 9 -13 9 -7 -1 8 -14 -10 -42 -27 -42
-6 0 -2 6 9 14 17 13 17 15 3 21 -11 4 -15 13 -11 27 3 14 1 19 -6 14 -7 -4
-12 -1 -12 9 0 9 5 13 10 10 6 -3 10 -1 10 4 0 6 -4 11 -9 11 -5 0 -12 15 -16
33 -4 17 -9 26 -12 20 -2 -7 -11 -13 -19 -13 -11 0 -11 5 -3 24 7 14 17 22 24
20 6 -3 12 2 12 10 0 8 -4 13 -8 10 -8 -4 -25 35 -21 49 1 4 -5 7 -13 7 -25 0
-29 1 -45 13 -9 7 -8 4 3 -9 25 -30 23 -52 -3 -29 -19 18 -20 17 -20 -3 0 -11
4 -32 10 -46 8 -21 7 -24 -7 -19 -13 5 -14 3 -3 -17 11 -21 10 -22 -11 -18
-13 3 -33 9 -44 13 -13 4 -16 4 -8 -2 10 -7 10 -15 0 -36 -6 -15 -16 -27 -20
-27 -5 0 -6 4 -2 9 3 5 1 12 -4 15 -5 3 -8 -14 -8 -39 1 -25 -1 -45 -5 -45 -5
0 -8 6 -8 13 0 9 -3 8 -9 -2 -5 -7 -13 -11 -19 -8 -5 4 -9 -3 -8 -16 0 -12 -4
-21 -11 -20 -7 2 -10 -4 -7 -12 4 -8 1 -15 -6 -15 -6 0 -10 -6 -8 -12 3 -7 13
-13 23 -13 9 0 24 -11 32 -25 l15 -25 -19 23 c-38 46 -73 1 -42 -53 15 -25 16
-33 4 -48 -8 -11 -16 -14 -20 -8 -3 6 -17 10 -30 9 -23 -2 -24 -4 -10 -25 20
-29 19 -54 0 -47 -8 4 -13 9 -11 13 3 4 1 13 -5 21 -7 12 -9 11 -9 -5 0 -12 5
-26 11 -32 8 -8 5 -14 -10 -23 -12 -6 -21 -7 -20 -3 4 24 -2 36 -12 26 -7 -7
-5 -23 7 -52 13 -34 19 -39 30 -30 12 10 13 8 5 -12 -5 -13 -14 -23 -19 -22
-5 1 -7 -7 -4 -19 3 -13 -1 -25 -11 -33 -27 -20 -8 -62 26 -56 5 1 6 -3 2 -9
-3 -5 -16 -10 -27 -10 -12 0 -18 -3 -15 -6 3 -4 1 -16 -5 -28 -7 -11 -13 -30
-15 -40 -2 -11 -12 -26 -23 -33 -11 -8 -18 -19 -15 -24 4 -5 2 -24 -4 -42 -6
-17 -13 -44 -16 -59 -3 -16 -10 -27 -16 -25 -11 2 -17 -6 -40 -58 -8 -16 -22
-36 -31 -43 -10 -7 -18 -20 -18 -28 0 -8 -5 -14 -11 -14 -6 0 -8 -7 -5 -15 4
-11 0 -15 -11 -13 -10 2 -18 -3 -19 -9 -1 -7 -2 -17 -3 -23 0 -5 -7 -9 -13 -7
-9 1 -12 -8 -10 -28 3 -24 1 -28 -9 -18 -21 21 -26 15 -25 -22 0 -19 4 -35 9
-35 4 0 7 -8 7 -17 0 -15 -2 -16 -10 -3 -5 8 -12 11 -16 7 -4 -3 -1 -14 7 -24
12 -14 12 -16 -1 -12 -8 3 -22 -2 -31 -11 -23 -24 -4 -45 51 -60 25 -6 51 -19
58 -28 8 -10 12 -11 12 -3 0 7 5 9 11 5 8 -4 4 -13 -12 -25 -13 -10 -20 -19
-16 -19 5 0 20 9 34 20 14 11 30 20 34 20 18 0 8 -16 -21 -33 -16 -10 -30 -24
-30 -30 0 -8 2 -9 8 -1 9 14 54 39 65 36 5 -1 5 3 1 9 -9 15 36 1 54 -17 7 -8
19 -11 25 -7 7 4 6 -1 -2 -11 -10 -12 -16 -14 -21 -5 -6 8 -9 8 -11 0 -2 -6
-15 -13 -28 -16 -14 -2 -32 -12 -40 -21 -15 -15 -13 -16 19 -10 19 3 29 3 23
0 -25 -11 -12 -24 25 -25 l37 -1 -30 -9 c-16 -5 -35 -7 -42 -4 -7 2 -10 -2 -7
-9 3 -9 -11 -18 -43 -26 l-48 -13 35 -6 c19 -4 31 -9 25 -12 -9 -6 -46 -8
-204 -14 -25 -1 -47 -7 -49 -14 -2 -6 -9 -17 -16 -24 -7 -7 -11 -18 -8 -25 4
-13 0 -14 -46 -16 -16 0 -36 -7 -44 -13 -8 -7 -18 -10 -21 -6 -4 3 -13 1 -20
-5 -8 -7 -17 -9 -20 -5 -4 3 -7 1 -7 -6 0 -7 -5 -9 -10 -6 -6 4 -7 11 -4 17 4
7 2 8 -4 4 -6 -4 -9 -13 -6 -20 3 -8 -6 -18 -23 -25 -31 -12 -133 -11 -133 1
0 4 -6 8 -14 8 -8 0 -17 6 -19 13 -4 7 -6 6 -6 -5 -1 -9 3 -18 8 -20 5 -1 -1
-42 -14 -90 -13 -48 -26 -118 -30 -155 -9 -96 -34 -200 -61 -255 -20 -39 -74
-293 -74 -345 0 -11 352 -13 1823 -13 l1824 0 11 143 c7 78 14 205 17 282 7
164 18 275 36 365 10 51 24 82 69 145 31 44 72 104 90 132 18 29 46 58 62 65
28 13 35 24 44 74 3 15 14 44 25 65 10 21 26 69 35 105 8 37 30 99 49 138 18
39 41 103 50 141 20 81 75 236 111 312 22 48 26 51 56 47 18 -2 63 -6 99 -10
74 -7 64 -17 103 101 21 66 22 183 1 191 -21 8 -40 -10 -73 -67 -30 -55 -42
-61 -42 -24 0 15 -7 40 -16 56 -14 28 -14 33 1 56 19 28 21 72 10 145 -7 42
-5 52 19 82 14 20 42 68 61 108 40 82 45 142 20 224 -8 27 -20 87 -25 134 -6
47 -25 132 -43 190 -31 104 -32 106 -28 290 1 102 -2 239 -8 306 -9 88 -9 129
-1 149 15 39 6 68 -25 85 -16 8 -32 33 -45 67 -49 131 -122 238 -206 304 -70
54 -294 178 -338 186 -17 3 -39 10 -49 15 -10 5 -44 16 -75 24 -31 8 -71 24
-90 36 -28 17 -38 19 -58 9 -37 -16 -47 -14 -90 20 -76 62 -252 128 -340 129
-38 0 -71 34 -108 113 -32 67 -97 122 -164 140 -34 9 -60 29 -127 99 -47 48
-87 98 -89 110 -16 77 -47 333 -45 374 2 27 3 117 3 201 l1 152 25 6 c36 9 72
34 65 46 -4 5 -1 8 6 7 7 -2 26 27 43 67 41 96 49 248 18 363 -12 43 -24 93
-27 113 -7 47 -33 70 -74 67 l-33 -3 -1 113 c-1 61 -4 112 -8 112 -3 0 -6 15
-6 33 0 17 -6 59 -13 92 -6 33 -14 76 -16 95 -2 19 -8 44 -13 55 -17 39 -24
60 -22 72 4 30 -92 163 -119 163 -5 0 -16 7 -24 16 -11 10 -42 18 -89 21 l-73
6 2 39 c2 49 -34 121 -82 164 -32 29 -167 89 -259 114 -50 14 -309 21 -390 11z
m665 -1088 c20 -8 7 -10 -67 -9 -51 0 -93 4 -93 8 0 16 122 17 160 1z m508
-271 c19 -25 -7 -30 -27 -5 -9 12 -23 23 -31 27 -8 3 -1 4 15 1 17 -4 36 -14
43 -23z m-8 -362 c0 -5 -5 -10 -11 -10 -5 0 -7 5 -4 10 3 6 8 10 11 10 2 0 4
-4 4 -10z m-417 -144 c3 -8 0 -17 -8 -19 -11 -5 -13 6 -6 31 2 6 9 0 14 -12z
m240 -111 c-3 -9 -8 -14 -10 -11 -3 3 -2 9 2 15 9 16 15 13 8 -4z m-48 -15 c3
-5 1 -10 -4 -10 -6 0 -11 5 -11 10 0 6 2 10 4 10 3 0 8 -4 11 -10z m170 -901
c12 -54 -9 -54 -25 0 -7 24 -5 31 5 31 7 0 16 -14 20 -31z m-353 -439 c-2 -7
5 -9 18 -5 18 6 19 4 10 -21 -9 -22 -8 -25 3 -16 10 9 13 6 14 -11 1 -12 5
-32 8 -44 3 -13 1 -23 -5 -23 -5 0 -10 -9 -10 -20 0 -11 -4 -20 -10 -20 -5 0
-10 -15 -10 -33 0 -43 -18 -63 -37 -39 -12 15 -13 14 -7 -11 5 -23 3 -26 -11
-21 -9 4 -21 17 -25 30 -7 17 -14 22 -26 17 -13 -5 -16 -3 -11 10 3 9 2 17 -3
17 -6 0 5 22 23 48 18 27 39 74 47 105 7 33 18 56 24 54 6 -3 10 -10 8 -17z
m35 -202 c-3 -7 -5 -2 -5 12 0 14 2 19 5 13 2 -7 2 -19 0 -25z m-452 -1358
c-3 -5 -11 -10 -16 -10 -6 0 -7 5 -4 10 3 6 11 10 16 10 6 0 7 -4 4 -10z
m-253 -277 c-3 -16 -7 -22 -10 -15 -4 13 4 42 11 42 2 0 2 -12 -1 -27z m122 4
c4 4 6 -9 4 -28 -2 -32 -12 -49 -32 -49 -5 0 -4 6 2 13 7 8 7 18 2 27 -6 8
-10 23 -10 34 0 14 3 16 13 7 8 -6 17 -8 21 -4z m-334 -17 c9 -16 8 -19 -6
-13 -12 4 -15 3 -10 -5 4 -7 1 -12 -10 -12 -16 0 -16 1 -1 18 10 10 14 22 10
25 -3 4 -3 7 0 7 3 0 11 -9 17 -20z m50 -26 c0 -14 -3 -14 -15 -4 -8 7 -15 14
-15 16 0 2 7 4 15 4 8 0 15 -7 15 -16z m131 3 c-6 -8 -8 -17 -4 -20 3 -4 1 -7
-5 -7 -16 0 -15 27 1 33 19 8 20 8 8 -6z m216 -9 c-3 -8 -6 -5 -6 6 -1 11 2
17 5 13 3 -3 4 -12 1 -19z m-253 -19 c-8 -13 -24 -1 -24 18 0 13 3 13 15 3 8
-7 12 -16 9 -21z m-94 -14 c0 -6 -7 -12 -15 -12 -9 0 -15 10 -15 25 0 21 2 22
15 12 8 -7 15 -18 15 -25z m-130 0 c0 -8 5 -17 12 -21 8 -5 9 0 5 17 -6 23 -5
23 19 -4 25 -29 24 -47 -2 -47 -8 0 -14 -7 -12 -16 2 -10 -3 -19 -11 -22 -8
-2 -11 0 -8 5 4 6 1 33 -7 61 -7 28 -9 49 -4 46 4 -3 8 -11 8 -19z m426 -6 c3
-6 0 -17 -8 -25 -12 -12 -14 -10 -16 11 -2 26 11 34 24 14z m-39 -21 c-3 -8
-6 -5 -6 6 -1 11 2 17 5 13 3 -3 4 -12 1 -19z m-303 -41 c-7 -20 -34 -23 -34
-4 0 19 22 39 32 29 5 -5 6 -16 2 -25z m56 -2 c0 -8 -2 -15 -4 -15 -2 0 -6 7
-10 15 -3 8 -1 15 4 15 6 0 10 -7 10 -15z m-88 -54 c4 -24 1 -27 -16 -23 -17
4 -19 2 -8 -9 6 -7 11 -22 11 -33 -1 -18 -2 -18 -6 -3 -2 9 -9 15 -14 11 -5
-3 -6 -11 -3 -17 4 -7 4 -9 0 -5 -4 3 -7 9 -6 13 0 3 -8 14 -19 23 -18 15 -19
18 -4 31 13 12 14 11 8 -8 -6 -21 -5 -20 20 3 15 14 24 30 20 35 -3 6 -2 11 3
11 5 0 12 -13 14 -29z m-27 9 c3 -5 1 -10 -4 -10 -6 0 -11 5 -11 10 0 6 2 10
4 10 3 0 8 -4 11 -10z m82 -40 c1 -17 -2 -30 -7 -30 -15 0 -21 18 -8 23 8 3 6
6 -4 6 -17 1 -24 21 -12 34 13 12 29 -5 31 -33z m-190 -70 c16 -10 15 -11 -7
-6 -14 3 -28 6 -31 6 -4 0 -10 7 -13 16 -3 8 -2 12 4 9 6 -3 10 2 11 12 0 15
2 14 9 -4 5 -12 17 -26 27 -33z m46 29 c5 -3 2 -9 -7 -12 -12 -5 -16 0 -16 15
0 12 3 17 8 12 4 -5 11 -12 15 -15z m-186 -211 c-3 -8 -6 -5 -6 6 -1 11 2 17
5 13 3 -3 4 -12 1 -19z m3 -129 c0 -6 -4 -7 -10 -4 -5 3 -10 11 -10 16 0 6 5
7 10 4 6 -3 10 -11 10 -16z m-15 -79 c3 -5 1 -10 -4 -10 -6 0 -11 5 -11 10 0
6 2 10 4 10 3 0 8 -4 11 -10z m1831 -190 c8 0 14 6 15 13 0 6 5 -1 11 -16 6
-16 16 -26 22 -24 9 4 11 -3 8 -19 -5 -28 3 -31 24 -9 9 8 11 15 5 15 -7 0 -7
10 0 30 12 34 29 31 29 -6 0 -24 1 -24 22 -10 30 22 48 20 48 -4 0 -11 -4 -20
-10 -20 -5 0 -10 8 -10 17 0 13 -3 14 -12 5 -9 -9 -9 -15 -1 -23 14 -14 53 -2
47 15 -3 8 3 12 17 11 13 -1 25 -8 27 -16 10 -39 11 -39 37 -27 26 12 31 23
15 33 -5 3 -10 12 -10 18 0 9 2 9 8 0 4 -7 17 -14 27 -16 11 -1 25 -6 32 -10
18 -11 22 16 5 36 -15 16 -14 17 1 11 10 -3 17 -1 17 6 0 6 5 8 10 5 6 -3 10
-11 10 -16 0 -6 -4 -7 -10 -4 -5 3 -10 1 -10 -4 0 -6 10 -11 23 -12 20 0 20
-1 3 -8 -13 -5 -16 -10 -9 -14 6 -4 18 0 27 9 9 8 21 12 27 8 7 -4 9 -3 6 3
-10 16 22 25 41 12 15 -9 15 -10 -2 -5 -14 5 -17 2 -12 -10 3 -8 6 -22 6 -30
0 -8 9 -14 21 -14 11 0 18 4 15 8 -2 4 -1 14 3 21 6 9 11 10 15 2 4 -6 2 -11
-4 -11 -6 0 -8 -5 -4 -11 3 -6 15 -9 25 -6 11 3 19 0 19 -8 0 -7 9 -15 21 -18
12 -3 18 -10 14 -17 -4 -6 -1 -11 6 -9 27 3 40 -1 34 -11 -3 -5 0 -10 8 -10 8
0 17 -7 21 -15 3 -8 10 -15 16 -15 17 0 176 -122 248 -189 47 -45 64 -78 35
-67 -12 5 -13 3 -5 -7 13 -15 -1 -43 -16 -33 -6 4 -8 -3 -6 -16 l5 -23 -10 23
c-11 24 -31 30 -31 10 0 -9 -4 -8 -11 2 -9 12 -10 11 -6 -6 4 -20 3 -21 -21
-8 -29 15 -44 10 -35 -11 5 -14 -14 -21 -41 -16 -5 1 -6 -5 -3 -13 5 -11 0
-13 -23 -6 -22 6 -32 4 -42 -8 -11 -13 -11 -14 1 -7 9 5 12 4 8 -2 -5 -8 -28
-9 -57 -4 -3 1 2 6 10 11 9 6 10 10 3 10 -6 0 -20 -10 -30 -22 -10 -13 -27
-23 -38 -23 -12 0 -22 -9 -26 -25 -7 -25 -7 -24 -8 4 -1 28 -2 28 -19 13 -10
-10 -24 -17 -30 -17 -7 0 -13 -8 -13 -17 -1 -15 -2 -15 -6 1 -4 16 -8 14 -20
-14 -11 -27 -16 -31 -23 -20 -5 8 -7 17 -4 21 2 4 -5 5 -16 2 -16 -4 -19 -11
-14 -27 6 -21 6 -21 -9 -1 -15 20 -16 20 -26 -7 -6 -17 -17 -26 -29 -25 -16 1
-18 6 -12 39 5 27 4 36 -4 30 -18 -14 -70 3 -60 19 3 5 13 5 24 -1 16 -8 18
-8 14 5 -6 16 -26 20 -38 8 -20 -20 -36 -10 -36 23 0 21 -4 33 -10 29 -5 -3
-10 -1 -10 4 0 6 -7 11 -16 11 -10 0 -12 -4 -7 -12 4 -7 8 -20 8 -28 0 -8 6
-14 13 -12 6 1 11 -1 11 -5 -4 -23 3 -35 16 -29 8 3 15 1 15 -4 0 -6 8 -10 18
-11 10 0 12 -3 5 -6 -7 -2 -13 -12 -13 -21 -1 -13 -4 -12 -13 5 -8 14 -17 19
-25 14 -10 -6 -10 -10 3 -21 8 -7 15 -19 15 -28 0 -13 -2 -13 -18 1 -25 23
-31 21 -26 -5 2 -13 2 -18 -1 -12 -7 14 -52 6 -58 -10 -2 -6 -3 -3 -2 7 2 9
-1 17 -6 17 -5 0 -9 8 -9 18 0 13 -2 14 -9 4 -7 -11 -9 -11 -14 2 -4 10 -1 16
9 16 8 0 17 -7 20 -15 9 -22 26 -6 18 17 -3 12 -2 18 3 15 11 -7 33 34 33 60
0 9 -6 13 -15 9 -11 -4 -15 2 -14 22 0 24 1 25 9 7 7 -17 9 -16 10 10 1 17 1
41 0 54 -1 16 2 21 10 16 7 -4 16 -1 21 6 8 13 13 -9 12 -63 0 -10 5 -18 10
-18 5 0 7 19 5 42 -2 24 2 59 9 78 6 19 12 27 13 17 0 -11 5 -16 13 -12 6 4 3
-1 -8 -10 -14 -12 -16 -19 -7 -22 6 -3 12 -9 12 -14 0 -6 -4 -8 -8 -5 -5 3 -9
-13 -9 -35 -1 -39 8 -47 12 -12 1 10 6 34 10 53 7 29 9 31 16 15 6 -17 8 -16
8 8 1 15 6 27 12 27 6 0 9 6 6 13 -2 6 -13 11 -25 9 -17 -2 -19 1 -15 19 6 22
7 22 15 3 8 -18 8 -18 5 0 -3 26 -24 32 -30 9 -4 -14 -5 -13 -6 5 -1 20 -4 21
-21 12 -17 -9 -20 -8 -21 12 -1 17 -3 18 -6 6 -2 -10 -8 -18 -13 -18 -5 0 -7
7 -4 15 8 21 -13 44 -36 40 -12 -2 -21 4 -25 18 -7 21 -7 21 -12 2 -3 -11 -10
-24 -15 -30 -8 -7 -9 -6 -4 3 4 6 2 12 -5 12 -7 0 -9 10 -7 25 6 28 -8 43 -24
27 -6 -6 -7 -16 0 -28 7 -14 6 -23 -5 -33 -12 -11 -14 -11 -12 0 3 28 -1 39
-16 39 -8 0 -12 -6 -9 -13 3 -8 0 -26 -6 -42 -10 -27 -11 -27 -26 -9 -9 10
-13 13 -9 7 9 -18 -11 -16 -43 4 -26 17 -26 17 -12 -1 20 -25 20 -39 2 -56
-14 -12 -15 -11 -10 8 7 25 -16 50 -27 31 -6 -8 -10 -7 -16 2 -6 10 -8 8 -6
-8 2 -12 7 -26 12 -30 4 -5 5 -2 1 5 -8 14 10 17 19 3 7 -12 -3 -18 -40 -22
-16 -2 -33 -11 -37 -19 -6 -13 -7 -12 -7 1 -1 23 -81 65 -81 44 0 -22 -20 -18
-41 7 l-19 21 0 -26 c0 -20 -4 -24 -21 -20 -12 4 -18 11 -15 20 3 8 1 11 -4 8
-13 -8 -13 -32 -1 -37 15 -5 25 -58 12 -58 -7 0 -11 6 -10 13 3 22 -1 37 -8
36 -23 -4 -33 3 -34 24 -1 21 -1 21 -9 -3 -6 -20 -9 -22 -14 -9 -5 11 -15 15
-27 12 -10 -3 -19 -1 -19 5 0 12 -38 4 -46 -10 -3 -5 -1 -15 6 -23 7 -8 7 -15
1 -19 -6 -4 -8 -14 -5 -24 5 -16 5 -16 -9 0 -8 10 -18 14 -22 10 -4 -4 -3 3 4
15 9 19 8 24 -9 33 -14 8 -20 8 -20 0 0 -6 -4 -9 -9 -5 -5 3 -13 1 -16 -5 -4
-6 -1 -9 6 -8 6 2 14 -3 17 -11 3 -8 0 -11 -7 -7 -6 4 -11 3 -11 -3 0 -6 11
-13 25 -17 14 -3 25 -10 25 -16 0 -5 -4 -6 -10 -3 -13 8 -12 -2 5 -50 18 -51
18 -79 0 -40 l-14 30 6 -32 c4 -22 1 -33 -6 -33 -7 0 -9 5 -5 12 5 8 1 9 -12
4 -15 -6 -17 -5 -6 5 19 20 15 77 -7 88 -10 6 -21 7 -25 4 -3 -3 -6 1 -6 11 0
14 -4 15 -20 6 -11 -6 -20 -16 -20 -23 0 -7 -12 -20 -25 -30 -23 -17 -25 -17
-35 2 -12 24 -13 41 0 21 5 -8 12 -12 15 -8 10 10 -17 47 -31 41 -11 -4 -26
54 -17 70 8 14 33 -21 26 -38 -5 -15 -3 -16 15 -6 28 15 32 14 32 -6 0 -16 2
-16 11 -3 9 12 10 12 5 -4 -5 -14 -3 -17 11 -11 10 4 26 7 36 7 14 -1 16 2 8
12 -6 7 -8 16 -4 19 3 4 2 7 -4 7 -7 0 -9 9 -5 23 5 21 5 21 -12 5 -9 -10 -14
-22 -11 -28 3 -5 2 -10 -4 -10 -5 0 -12 4 -16 10 -3 5 -12 7 -19 4 -9 -3 -17
3 -21 15 -3 12 -11 19 -16 16 -16 -11 -10 7 9 22 9 8 12 12 5 9 -8 -5 -8 0 0
19 7 14 17 25 23 25 7 0 15 7 18 16 4 10 12 14 22 10 11 -4 15 -2 11 7 -3 8 3
14 16 15 12 0 23 6 26 13 2 8 6 7 12 -2 4 -7 11 -10 15 -6 4 3 1 14 -6 22 -12
14 -10 15 11 10 14 -3 32 -7 40 -8 8 -2 20 -7 28 -11 10 -6 12 -5 7 2 -4 7 -2
12 5 12 8 0 7 5 -2 17 -8 9 -9 14 -3 10 13 -7 77 37 67 46 -3 4 -1 7 5 7 7 0
12 -6 12 -12 0 -8 3 -9 8 -3 4 6 16 17 26 25 18 14 19 13 13 -4 -6 -16 -5 -17
8 -6 8 7 13 16 10 20 -3 4 6 8 20 8 14 0 22 -4 19 -9 -3 -5 3 -6 12 -2 13 5
15 3 10 -8 -5 -9 -3 -8 6 2 7 9 20 14 28 11 13 -5 13 -3 1 11 -12 15 -11 17 2
17 11 0 14 5 10 16 -5 14 -3 14 15 3 15 -10 18 -16 9 -21 -8 -5 -8 -8 -1 -8 6
0 17 7 24 15 10 13 9 15 -9 15 -11 0 -21 4 -21 9 0 6 12 6 30 1 24 -7 30 -5
35 11 4 10 10 19 15 19 5 0 6 -7 3 -17 -4 -11 -3 -14 6 -9 6 4 18 2 26 -4 12
-10 15 -9 15 5 0 14 3 15 14 6 12 -10 14 -8 10 11 -2 13 -2 17 2 11 3 -7 12
-13 20 -13z m299 2 c-3 -3 -11 0 -18 7 -9 10 -8 11 6 5 10 -3 15 -9 12 -12z
m-520 -32 c3 -6 -1 -7 -9 -4 -18 7 -21 14 -7 14 6 0 13 -4 16 -10z m-35 -20
c0 -5 -2 -10 -4 -10 -3 0 -8 5 -11 10 -3 6 -1 10 4 10 6 0 11 -4 11 -10z
m-220 -95 c7 -9 8 -15 2 -15 -5 0 -12 7 -16 15 -3 8 -4 15 -2 15 2 0 9 -7 16
-15z m-25 -15 c3 -5 2 -10 -4 -10 -5 0 -13 5 -16 10 -3 6 -2 10 4 10 5 0 13
-4 16 -10z m629 -126 c3 -9 2 -12 -5 -9 -5 4 -16 1 -24 -5 -8 -7 -15 -9 -15
-5 0 6 28 33 36 35 1 0 5 -7 8 -16z m56 -4 c0 -5 -4 -10 -10 -10 -5 0 -10 5
-10 10 0 6 5 10 10 10 6 0 10 -4 10 -10z m-11 -23 c-2 -1 -12 -9 -22 -16 -15
-12 -17 -12 -11 3 3 9 13 16 22 16 8 0 13 -1 11 -3z m-582 -82 c16 -50 11 -54
-16 -13 -15 24 -21 28 -21 15 0 -10 5 -28 11 -39 9 -18 9 -20 -4 -15 -9 3 -17
2 -19 -3 -2 -4 -9 -2 -16 6 -11 12 -10 14 3 14 11 0 15 11 15 39 0 54 30 52
47 -4z m156 25 c-3 -11 -7 -20 -9 -20 -2 0 -4 9 -4 20 0 11 4 20 9 20 5 0 7
-9 4 -20z m87 16 c0 -3 -4 -8 -10 -11 -5 -3 -10 -1 -10 4 0 6 5 11 10 11 6 0
10 -2 10 -4z m-45 -27 c11 -17 -1 -21 -15 -4 -8 9 -8 15 -2 15 6 0 14 -5 17
-11z m-515 -14 c0 -8 -4 -15 -10 -15 -5 0 -7 7 -4 15 4 8 8 15 10 15 2 0 4 -7
4 -15z m957 -27 c-3 -7 -5 -2 -5 12 0 14 2 19 5 13 2 -7 2 -19 0 -25z m-593 7
c3 -8 1 -15 -4 -15 -6 0 -10 7 -10 15 0 8 2 15 4 15 2 0 6 -7 10 -15z m93 0
c0 -8 -4 -15 -9 -15 -4 0 -8 7 -8 15 0 8 4 15 8 15 5 0 9 -7 9 -15z m118 5 c3
-5 1 -10 -4 -10 -6 0 -11 5 -11 10 0 6 2 10 4 10 3 0 8 -4 11 -10z m-575 -31
c0 -4 -7 -6 -15 -3 -8 4 -15 10 -15 15 0 4 7 6 15 3 8 -4 15 -10 15 -15z m635
-7 c-3 -3 -11 0 -18 7 -9 10 -8 11 6 5 10 -3 15 -9 12 -12z m-714 -1 c-8 -5
-11 -16 -8 -26 4 -9 3 -14 -2 -11 -5 3 -11 14 -13 24 -4 13 1 18 16 20 15 1
17 -1 7 -7z m552 -11 c3 -11 1 -18 -4 -14 -5 3 -9 12 -9 20 0 20 7 17 13 -6z
m-1458 -27 c-20 -48 -28 -55 -49 -47 -21 8 -16 26 12 40 12 6 19 14 14 19 -4
5 -1 5 6 1 7 -4 12 -1 12 8 0 9 5 16 10 16 6 0 4 -16 -5 -37z m865 22 c0 -8
-2 -15 -4 -15 -2 0 -6 7 -10 15 -3 8 -1 15 4 15 6 0 10 -7 10 -15z m136 -10
c-3 -14 -1 -23 3 -20 5 2 14 -2 21 -10 11 -13 10 -14 -4 -9 -11 4 -16 1 -17
-12 0 -11 -3 -14 -6 -6 -2 6 -9 9 -15 6 -7 -4 -1 -14 13 -25 20 -15 22 -20 11
-31 -11 -11 -12 -10 -7 5 5 11 2 17 -7 17 -15 0 -38 40 -38 65 0 15 27 45 41
45 5 0 7 -11 5 -25z m148 10 c5 0 11 -7 13 -15 4 -12 3 -12 -5 -1 -8 11 -11
11 -17 0 -6 -9 -10 -8 -16 7 -7 17 -8 16 -8 -6 -1 -20 -3 -22 -11 -10 -6 9
-10 10 -10 3 0 -7 8 -17 18 -22 20 -10 28 -53 9 -45 -11 4 -37 50 -37 65 0 16
32 39 43 32 7 -4 16 -8 21 -8z m173 -17 c-2 -25 -3 -26 -14 -11 -17 22 -16 40
1 40 10 0 14 -10 13 -29z m-583 -14 c3 -16 7 -37 11 -46 4 -11 3 -18 -4 -18
-6 0 -8 -7 -5 -15 4 -8 10 -12 15 -9 5 3 8 2 7 -3 -1 -4 2 -19 6 -32 5 -15 4
-27 -4 -35 -10 -8 -11 -6 -5 13 5 15 4 21 -3 17 -6 -3 -13 3 -17 14 -5 16 -12
19 -27 14 -18 -5 -20 -3 -13 12 4 11 10 27 12 37 3 9 9 17 13 17 4 0 6 17 3
38 -3 20 -2 34 1 31 4 -4 8 -19 10 -35z m46 19 c0 -16 12 -17 27 -2 14 14 36
-5 41 -35 3 -17 2 -18 -12 -7 -9 8 -16 21 -17 30 0 12 -2 12 -8 -4 -5 -11 -2
-30 6 -45 7 -14 12 -41 12 -60 -1 -31 -2 -29 -10 14 -4 27 -13 52 -20 56 -6 4
-9 12 -5 18 3 5 -1 13 -10 16 -11 4 -14 1 -10 -12 7 -21 -8 -49 -18 -33 -4 6
-3 11 3 11 6 0 6 11 0 32 -5 18 -9 33 -9 34 0 0 7 1 15 1 8 0 15 -6 15 -14z
m1120 7 c0 -5 -2 -10 -4 -10 -3 0 -8 5 -11 10 -3 6 -1 10 4 10 6 0 11 -4 11
-10z m-157 -13 c3 -8 -1 -14 -8 -14 -7 0 -11 6 -8 14 3 7 6 13 8 13 2 0 5 -6
8 -13z m-1674 -10 c13 5 14 3 3 -8 -10 -11 -15 -10 -27 4 -8 9 -10 13 -4 8 6
-5 19 -7 28 -4z m-30 -31 c-3 -3 -11 5 -18 17 -13 21 -12 21 5 5 10 -10 16
-20 13 -22z m657 -6 c1 -17 -2 -27 -7 -24 -5 3 -9 0 -9 -6 0 -6 -4 -9 -9 -6
-4 3 -3 21 3 40 12 40 19 38 22 -4z m181 2 c2 -23 1 -24 -7 -7 -11 24 -13 51
-3 41 4 -4 8 -19 10 -34z m56 18 c-3 -11 -7 -20 -9 -20 -2 0 -4 9 -4 20 0 11
4 20 9 20 5 0 7 -9 4 -20z m297 0 c6 -11 8 -20 6 -20 -3 0 -10 9 -16 20 -6 11
-8 20 -6 20 3 0 10 -9 16 -20z m28 -5 c-3 -3 -9 2 -12 12 -6 14 -5 15 5 6 7
-7 10 -15 7 -18z m-1348 -3 c0 -12 -70 -41 -75 -31 -3 4 7 15 22 23 31 17 53
20 53 8z m1012 -28 c5 -8 3 -14 -7 -18 -12 -4 -15 2 -14 27 0 18 3 25 6 17 3
-8 10 -20 15 -26z m-1012 -2 c0 -5 -7 -9 -15 -9 -8 0 -12 4 -9 9 3 4 9 8 15 8
5 0 9 -4 9 -8z m640 -37 c0 -5 -5 -3 -10 5 -5 8 -10 20 -10 25 0 6 5 3 10 -5
5 -8 10 -19 10 -25z m94 19 c3 -8 2 -12 -4 -9 -6 3 -10 10 -10 16 0 14 7 11
14 -7z m-719 -4 c-3 -5 -12 -10 -18 -10 -7 0 -6 4 3 10 19 12 23 12 15 0z
m-105 -20 c9 -6 17 -5 21 2 4 6 13 8 20 6 9 -4 4 -10 -14 -19 -24 -11 -30 -11
-37 1 -7 11 -11 11 -23 1 -9 -7 -18 -8 -21 -2 -11 17 30 26 54 11z m90 -5 c0
-2 -9 -9 -20 -15 -12 -6 -20 -7 -20 -1 0 5 8 12 18 14 9 3 18 5 20 6 1 0 2 -1
2 -4z m73 -9 c3 -8 -3 -23 -14 -35 -24 -25 -5 -29 29 -5 20 14 22 14 22 -4 0
-11 -7 -25 -14 -32 -17 -13 -64 -11 -85 5 -11 7 -13 7 -8 -2 6 -9 -3 -12 -30
-11 -48 1 -57 6 -42 24 13 16 54 20 44 4 -4 -7 2 -7 18 -1 14 6 29 7 33 3 5
-4 1 2 -9 14 -16 20 -14 34 5 34 5 0 6 -6 2 -12 -4 -7 3 -3 15 10 26 26 27 26
34 8z m864 -33 c-3 -10 -5 -2 -5 17 0 19 2 27 5 18 2 -10 2 -26 0 -35z m63 37
c0 -5 -2 -10 -4 -10 -3 0 -8 5 -11 10 -3 6 -1 10 4 10 6 0 11 -4 11 -10z
m-623 -22 c-3 -8 -6 -5 -6 6 -1 11 2 17 5 13 3 -3 4 -12 1 -19z m438 13 c3 -5
1 -12 -5 -16 -5 -3 -10 1 -10 9 0 18 6 21 15 7z m332 -13 c-3 -8 -6 -5 -6 6
-1 11 2 17 5 13 3 -3 4 -12 1 -19z m-384 -8 c3 -11 1 -18 -4 -14 -5 3 -9 12
-9 20 0 20 7 17 13 -6z m-778 0 c-3 -5 -12 -10 -18 -10 -7 0 -6 4 3 10 19 12
23 12 15 0z m352 -12 c-3 -8 -6 -5 -6 6 -1 11 2 17 5 13 3 -3 4 -12 1 -19z
m378 12 c-3 -5 -10 -10 -16 -10 -5 0 -9 5 -9 10 0 6 7 10 16 10 8 0 12 -4 9
-10z m85 -30 c5 -19 6 -29 1 -24 -10 10 -26 72 -17 63 4 -4 11 -21 16 -39z
m-857 23 c-7 -2 -19 -2 -25 0 -7 3 -2 5 12 5 14 0 19 -2 13 -5z m262 -2 c-9
-8 -36 -10 -30 -2 2 4 11 8 20 8 8 0 13 -3 10 -6z m473 -16 c-3 -3 -9 2 -12
12 -6 14 -5 15 5 6 7 -7 10 -15 7 -18z m212 10 c0 -8 -4 -15 -10 -15 -5 0 -10
7 -10 15 0 8 5 15 10 15 6 0 10 -7 10 -15z m-745 -24 c-3 -6 -13 -11 -22 -11
-13 0 -13 -3 -3 -15 11 -13 10 -14 -4 -9 -22 8 -20 20 6 38 23 16 35 15 23 -3z
m445 9 c0 -5 -5 -10 -11 -10 -5 0 -7 5 -4 10 3 6 8 10 11 10 2 0 4 -4 4 -10z
m50 -27 c-11 -17 -11 -17 -6 0 3 10 6 24 7 30 0 9 2 9 5 0 3 -7 0 -20 -6 -30z
m-405 16 c-3 -4 2 -10 11 -13 8 -3 12 -2 9 4 -3 6 -4 10 -1 10 2 0 12 3 22 7
11 4 15 3 10 -5 -3 -6 -2 -13 4 -17 5 -3 10 -2 10 4 0 6 6 8 14 5 11 -4 14
-18 11 -55 -3 -36 -1 -48 7 -43 7 4 8 3 4 -4 -4 -6 -2 -20 3 -31 9 -16 8 -18
-12 -15 -12 2 -16 1 -8 -2 11 -5 11 -8 0 -15 -10 -6 -7 -9 11 -10 14 -1 27 -1
30 -1 3 0 15 -7 28 -16 l22 -17 -31 -1 c-22 -1 -27 2 -17 8 9 7 4 8 -14 4 -24
-6 -63 7 -78 25 -3 4 -16 9 -30 13 -21 6 -22 5 -7 -4 9 -6 17 -15 17 -20 0
-13 -33 0 -43 16 -4 7 -13 11 -21 8 -20 -8 -126 36 -126 52 0 8 -7 14 -16 14
-9 0 -12 5 -8 12 4 7 3 8 -5 4 -6 -4 -9 -12 -6 -17 7 -11 -8 -12 -19 -1 -4 4
-13 7 -19 7 -7 1 -11 6 -9 13 1 7 -8 12 -20 13 -13 0 -41 7 -63 15 l-40 13 38
-5 c30 -4 37 -2 32 8 -4 7 -1 7 7 -2 7 -8 25 -14 40 -12 15 2 35 -1 46 -7 11
-6 24 -6 33 0 12 7 12 9 -1 9 -9 1 -6 5 8 10 23 10 52 3 64 -14 5 -7 8 -7 8 2
0 15 36 52 51 52 5 0 7 -5 3 -12 -5 -8 -2 -9 10 -5 10 4 20 7 22 7 3 0 3 4 0
8 -3 5 1 9 9 9 8 0 12 -4 10 -8z m495 -8 c0 -5 -9 -7 -20 -4 -11 3 -20 7 -20
9 0 2 9 4 20 4 11 0 20 -4 20 -9z m-825 -11 c3 -5 1 -10 -4 -10 -6 0 -11 5
-11 10 0 6 2 10 4 10 3 0 8 -4 11 -10z m796 -23 c-10 -9 -11 -8 -5 6 3 10 9
15 12 12 3 -3 0 -11 -7 -18z m75 11 c4 -7 3 -8 -4 -4 -7 4 -12 2 -12 -5 0 -7
-3 -10 -6 -6 -6 5 3 27 11 27 2 0 7 -5 11 -12z m171 -10 c-3 -8 -6 -5 -6 6 -1
11 2 17 5 13 3 -3 4 -12 1 -19z m-60 -10 c-3 -8 -6 -5 -6 6 -1 11 2 17 5 13 3
-3 4 -12 1 -19z m-488 -79 c-11 -7 -11 -9 -1 -9 7 0 20 -7 28 -15 8 -8 20 -12
27 -9 7 2 13 -4 14 -16 2 -23 -1 -24 -29 -9 -15 8 -19 8 -14 0 4 -6 2 -11 -3
-11 -6 0 -11 7 -11 15 0 8 -4 15 -9 15 -16 0 -21 30 -8 50 7 12 14 15 16 9 2
-6 -3 -15 -10 -20z m95 -44 c-4 -8 -8 -15 -10 -15 -2 0 -4 7 -4 15 0 8 4 15
10 15 5 0 7 -7 4 -15z m106 -15 c19 -16 30 -29 23 -30 -7 0 -16 8 -22 18 -5 9
-12 16 -15 15 -17 -8 -36 -1 -36 12 0 22 12 19 50 -15z m-145 -20 c3 -5 -1
-10 -9 -10 -9 0 -16 5 -16 10 0 6 4 10 9 10 6 0 13 -4 16 -10z"/>
<path d="M9201 1714 c0 -11 3 -14 6 -6 3 7 2 16 -1 19 -3 4 -6 -2 -5 -13z"/>
<path d="M9107 1695 c-4 -8 -2 -17 3 -20 6 -4 10 3 10 14 0 25 -6 27 -13 6z"/>
<path d="M9565 1691 c-3 -5 -1 -12 5 -16 5 -3 10 1 10 9 0 18 -6 21 -15 7z"/>
<path d="M9435 1670 c3 -5 8 -10 11 -10 2 0 4 5 4 10 0 6 -5 10 -11 10 -5 0
-7 -4 -4 -10z"/>
<path d="M9123 1650 c-3 -11 -9 -17 -14 -14 -5 3 -9 0 -9 -5 0 -6 5 -11 10
-11 6 0 9 -4 8 -9 -2 -5 1 -9 7 -10 5 -1 10 15 10 34 0 39 -4 45 -12 15z"/>
<path d="M9476 1661 c-3 -5 1 -11 9 -14 9 -4 12 -1 8 9 -6 16 -10 17 -17 5z"/>
<path d="M9299 1655 c-1 -5 -1 -13 0 -17 0 -4 -4 -19 -9 -33 -13 -34 -5 -32
13 4 9 18 11 34 6 42 -5 8 -9 10 -10 4z"/>
<path d="M9390 1639 c0 -5 5 -7 10 -4 6 3 10 8 10 11 0 2 -4 4 -10 4 -5 0 -10
-5 -10 -11z"/>
<path d="M8880 1619 c0 -5 5 -7 10 -4 6 3 10 8 10 11 0 2 -4 4 -10 4 -5 0 -10
-5 -10 -11z"/>
<path d="M9635 1620 c-13 -6 -15 -9 -5 -9 8 0 22 4 30 9 18 12 2 12 -25 0z"/>
<path d="M9215 1600 c-3 -5 1 -10 10 -10 9 0 13 5 10 10 -3 6 -8 10 -10 10 -2
0 -7 -4 -10 -10z"/>
<path d="M9470 1590 c0 -12 7 -20 18 -20 14 0 15 2 2 10 -13 9 -13 11 0 20 13
8 12 10 -2 10 -11 0 -18 -8 -18 -20z"/>
<path d="M9134 1564 c1 -9 10 -21 19 -26 20 -11 20 8 0 29 -16 17 -22 16 -19
-3z"/>
<path d="M8595 1512 c-3 -9 -3 -13 1 -9 4 4 13 -1 21 -11 8 -9 12 -11 8 -4 -4
7 -2 18 4 25 7 10 5 13 -9 14 -10 1 -21 -6 -25 -15z"/>
<path d="M8553 1465 c-10 -23 -9 -25 15 -24 15 1 20 3 11 6 -11 3 -15 11 -12
24 7 27 0 24 -14 -6z"/>
<path d="M8940 1470 c0 -5 5 -10 11 -10 5 0 7 5 4 10 -3 6 -8 10 -11 10 -2 0
-4 -4 -4 -10z"/>
<path d="M8461 1451 c-8 -5 -9 -11 -3 -15 5 -3 12 1 16 9 6 17 6 18 -13 6z"/>
<path d="M8621 1444 c0 -11 3 -14 6 -6 3 7 2 16 -1 19 -3 4 -6 -2 -5 -13z"/>
<path d="M8960 1430 c0 -17 2 -19 14 -8 14 13 12 28 -5 28 -5 0 -9 -9 -9 -20z"/>
<path d="M9457 1410 c-3 -14 -2 -29 3 -34 7 -7 10 -6 10 3 0 7 5 9 13 5 9 -6
9 -4 1 7 -6 8 -13 21 -16 29 -3 10 -7 6 -11 -10z"/>
<path d="M8455 1410 c3 -5 8 -10 11 -10 2 0 4 5 4 10 0 6 -5 10 -11 10 -5 0
-7 -4 -4 -10z"/>
<path d="M9580 1400 c0 -5 5 -10 11 -10 5 0 7 5 4 10 -3 6 -8 10 -11 10 -2 0
-4 -4 -4 -10z"/>
<path d="M8439 1338 c-9 -32 12 -70 27 -47 4 7 -1 16 -10 21 -9 5 -14 13 -11
19 4 5 4 9 1 9 -3 0 -6 -1 -7 -2z"/>
<path d="M9312 1080 c-15 -25 -15 -27 2 -27 7 0 14 11 14 24 0 28 0 28 -16 3z"/>
<path d="M9494 1079 c-3 -6 -2 -15 3 -20 5 -5 9 -1 9 11 0 23 -2 24 -12 9z"/>
<path d="M7530 1025 c0 -8 7 -15 15 -15 8 0 15 4 15 9 0 5 -7 11 -15 15 -9 3
-15 0 -15 -9z"/>
<path d="M7604 1003 c-2 -22 -1 -23 12 -6 17 23 17 30 2 30 -7 0 -14 -11 -14
-24z"/>
<path d="M7476 1003 c-3 -7 -18 -14 -33 -14 -25 -1 -24 -2 7 -8 26 -4 39 -2
53 12 22 22 22 26 -3 24 -11 -1 -22 -7 -24 -14z"/>
<path d="M1857 7423 c-3 -5 -21 -73 -41 -153 -21 -80 -39 -152 -42 -161 -4
-14 11 -17 103 -22 80 -5 109 -4 115 5 17 28 6 35 -64 42 -39 3 -74 8 -76 11
-3 2 11 67 30 145 l36 140 -29 0 c-15 0 -30 -3 -32 -7z"/>
<path d="M2926 7378 c-3 -18 -11 -49 -17 -70 l-10 -39 -26 21 c-77 60 -179
-15 -191 -141 -3 -37 0 -50 19 -71 33 -36 68 -42 113 -18 27 13 36 15 32 5 -4
-12 40 -32 51 -21 10 9 93 342 88 354 -2 6 -15 12 -28 12 -20 0 -26 -7 -31
-32z m-62 -134 c33 -32 7 -127 -39 -144 -40 -15 -53 -12 -70 14 -47 72 51 188
109 130z"/>
<path d="M2133 7310 c-43 -26 -66 -74 -67 -137 -1 -70 22 -95 96 -101 44 -3
59 0 87 20 72 49 96 161 45 212 -22 21 -36 26 -78 26 -33 0 -62 -7 -83 -20z
m106 -36 c20 -14 23 -23 18 -61 -6 -57 -39 -93 -83 -93 -88 0 -54 159 36 169
3 1 16 -6 29 -15z"/>
<path d="M2411 7283 c-48 -184 -52 -206 -39 -215 28 -18 41 -2 63 79 25 97 45
123 91 123 45 0 49 -21 24 -118 -11 -44 -20 -83 -20 -86 0 -3 13 -6 29 -6 28
0 29 3 50 85 11 46 21 96 21 110 0 60 -81 86 -135 43 l-28 -22 5 22 c5 19 2
22 -23 22 -24 0 -30 -5 -38 -37z"/>
<path d="M3095 7286 c-58 -26 -95 -85 -95 -152 0 -46 14 -70 50 -89 67 -35
150 -6 187 65 40 75 26 147 -32 175 -40 18 -70 19 -110 1z m90 -53 c20 -20 16
-80 -9 -118 -34 -52 -116 -41 -116 15 0 90 76 153 125 103z"/>
<path d="M3355 7268 c-2 -7 -18 -64 -34 -126 l-30 -113 31 3 c30 3 33 6 49 73
10 38 23 79 30 91 22 42 90 53 103 17 3 -8 -3 -50 -14 -93 -26 -100 -25 -102
7 -98 24 3 29 10 49 83 28 101 29 130 4 155 -28 28 -87 27 -117 -2 l-23 -21 0
21 c0 17 -6 22 -25 22 -14 0 -28 -6 -30 -12z"/>
<path d="M3603 7064 c-14 -38 41 -71 66 -40 7 8 10 24 6 36 -8 25 -62 28 -72
4z"/>
<path d="M3753 7073 c-19 -7 -16 -51 4 -62 37 -20 71 27 41 57 -13 13 -24 14
-45 5z"/>
<path d="M3875 7050 c-14 -43 44 -67 68 -28 8 12 7 21 -2 32 -19 23 -58 20
-66 -4z"/>
<path d="M1825 6728 c-2 -7 -22 -84 -44 -170 l-39 -158 32 0 c33 0 33 0 51 81
l19 82 79 -6 c44 -4 81 -8 83 -10 2 -1 -6 -36 -16 -77 -11 -41 -20 -76 -20
-77 0 -2 13 -3 29 -3 34 0 28 -15 80 188 l39 152 -32 0 c-32 0 -33 -2 -47 -62
l-15 -63 -79 4 c-44 2 -81 5 -83 6 -3 3 9 54 24 108 4 13 -1 17 -26 17 -17 0
-33 -6 -35 -12z"/>
<path d="M4065 6658 c-10 -28 -85 -324 -85 -335 0 -8 12 -13 29 -13 25 0 30 5
35 34 22 119 55 176 100 176 47 0 52 -23 28 -119 -12 -47 -22 -89 -22 -93 0
-5 13 -8 28 -8 28 0 29 3 52 99 27 113 23 147 -18 158 -35 9 -61 5 -90 -14
-13 -8 -25 -13 -27 -11 -3 2 2 28 10 58 20 74 19 80 -10 80 -14 0 -28 -6 -30
-12z"/>
<path d="M2199 6613 c-39 -33 -59 -79 -59 -137 0 -59 40 -96 103 -96 89 0 152
67 152 163 0 41 -5 53 -28 73 -42 36 -123 34 -168 -3z m104 -22 c32 -13 41
-40 27 -90 -12 -45 -41 -71 -80 -71 -35 0 -50 17 -50 57 0 56 27 95 77 112 1
1 13 -3 26 -8z"/>
<path d="M7605 6633 c-32 -7 -137 -43 -172 -59 -17 -8 -37 -14 -45 -14 -17 0
-79 -38 -95 -59 -17 -22 -16 -36 2 -21 8 6 19 9 25 5 17 -11 60 -13 60 -4 0 5
5 9 11 9 5 0 7 -5 3 -12 -5 -8 -2 -9 12 -4 53 22 56 16 11 -24 -52 -46 -67
-68 -74 -111 -3 -22 0 -29 11 -29 9 0 16 5 16 10 0 6 5 10 11 10 5 0 7 -4 4
-10 -9 -15 8 -12 33 6 12 8 22 23 22 33 0 28 53 72 93 76 27 2 34 0 30 -11 -3
-8 -9 -14 -15 -14 -5 0 -7 -4 -3 -10 8 -12 145 -8 146 5 1 5 1 16 0 24 -2 7 2
10 7 7 14 -9 1 42 -14 55 -20 16 -17 36 6 42 35 9 26 52 -17 82 -21 14 -40 24
-43 24 -3 -1 -14 -3 -25 -6z"/>
<path d="M2470 6500 l0 -130 30 0 c27 0 33 7 77 92 53 104 60 102 62 -23 1
-67 1 -67 32 -71 30 -5 31 -3 95 124 l64 128 -28 0 c-27 0 -32 -8 -72 -92
l-44 -93 -7 88 c-4 49 -9 90 -11 92 -2 1 -13 5 -25 9 -19 6 -27 -4 -69 -84
-27 -49 -52 -90 -56 -90 -4 0 -4 41 -1 90 l6 90 -27 0 -26 0 0 -130z"/>
<path d="M4456 6473 c-22 -87 -41 -164 -44 -171 -3 -10 4 -13 29 -10 l33 3 42
168 42 167 -32 0 -32 0 -38 -157z"/>
<path d="M2991 6573 c-29 -112 -51 -203 -51 -213 0 -6 11 -10 27 -8 24 3 29
10 49 87 25 90 45 121 78 121 50 -1 53 -12 28 -110 -13 -51 -22 -93 -20 -95 1
-2 14 -5 27 -7 21 -2 26 2 33 32 24 95 40 140 54 154 19 20 73 21 80 2 3 -7
-4 -50 -15 -94 -26 -102 -26 -102 7 -102 27 0 29 3 50 93 12 50 22 101 22 113
0 51 -75 71 -123 34 l-26 -20 -26 26 c-22 22 -33 25 -62 21 -20 -4 -45 -14
-56 -24 -20 -18 -20 -17 -15 5 5 19 2 22 -23 22 -24 0 -30 -5 -38 -37z"/>
<path d="M3430 6489 c-22 -91 -23 -103 -9 -127 20 -37 80 -42 122 -11 l30 22
-6 -22 c-4 -18 -1 -21 24 -21 16 0 29 2 29 4 0 2 13 55 30 117 16 63 30 117
30 122 0 4 -13 7 -29 7 -28 0 -30 -3 -46 -72 -10 -40 -24 -83 -32 -96 -25 -40
-84 -49 -97 -15 -3 8 3 50 14 93 25 100 25 100 -8 100 -28 0 -29 -3 -52 -101z"/>
<path d="M3801 6562 c-43 -21 -70 -57 -81 -108 -19 -84 25 -140 106 -138 47 1
96 28 102 56 5 26 -27 29 -58 7 -56 -42 -110 1 -90 72 19 66 88 103 120 64 23
-28 66 -11 56 22 -14 43 -96 56 -155 25z"/>
<path d="M7265 6430 c-3 -5 -2 -10 4 -10 5 0 13 5 16 10 3 6 2 10 -4 10 -5 0
-13 -4 -16 -10z"/>
<path d="M7986 6344 c4 -10 11 -22 16 -25 5 -3 4 -18 -2 -33 -12 -34 -13 -57
-1 -38 7 11 9 11 14 -1 3 -9 14 -13 30 -10 14 3 35 0 47 -7 37 -20 33 -4 -11
36 -23 22 -55 52 -71 68 -21 22 -27 25 -22 10z"/>
<path d="M7080 6193 c0 -5 11 -21 25 -38 22 -27 24 -28 25 -9 0 11 -8 28 -18
37 -20 18 -32 22 -32 10z"/>
<path d="M7985 6145 c-15 -30 -30 -55 -35 -55 -14 0 -31 -37 -24 -54 3 -8 21
-22 40 -31 19 -9 32 -20 29 -26 -12 -18 6 -30 21 -14 18 17 51 19 88 5 20 -7
24 -6 19 5 -7 20 17 19 46 -2 23 -16 24 -16 19 5 -4 12 -3 20 2 17 13 -8 43
61 37 86 -7 27 -61 90 -91 106 -15 8 -26 7 -43 -4 -21 -14 -25 -14 -42 1 -28
26 -39 20 -66 -39z"/>
<path d="M1795 6068 c-2 -7 -23 -87 -45 -177 -33 -130 -38 -166 -28 -173 28
-18 41 -2 63 79 24 93 45 123 85 123 50 0 55 -20 31 -115 -11 -46 -21 -87 -21
-90 0 -3 13 -5 29 -5 28 0 29 3 50 85 27 109 27 140 -1 159 -30 22 -66 20
-106 -4 -31 -19 -33 -19 -28 -3 19 67 27 107 22 119 -7 17 -45 18 -51 2z"/>
<path d="M7787 6069 c-16 -10 -16 -11 0 -33 12 -16 22 -21 33 -15 8 4 27 10
43 14 34 7 35 23 1 35 -32 13 -54 12 -77 -1z"/>
<path d="M3138 5973 c-18 -3 -28 -11 -30 -26 -2 -14 -11 -23 -25 -25 -34 -5
-42 -52 -8 -52 10 0 9 -15 -6 -75 -17 -64 -18 -80 -7 -102 24 -49 118 -53 118
-6 0 20 -4 24 -20 20 -11 -3 -27 1 -34 9 -12 11 -11 24 3 81 17 68 17 68 56
73 54 7 60 35 11 44 -33 6 -35 9 -29 36 3 17 4 29 2 29 -2 -1 -16 -4 -31 -6z"/>
<path d="M2104 5941 c-37 -22 -66 -79 -72 -142 -3 -38 0 -50 21 -74 19 -23 32
-29 61 -28 21 1 45 8 55 17 22 20 35 21 28 2 -4 -9 3 -16 20 -21 14 -3 27 -4
30 -2 2 3 19 61 37 131 l33 126 -29 0 c-16 0 -31 -6 -34 -15 -5 -13 -10 -12
-31 5 -32 25 -79 25 -119 1z m110 -47 c45 -45 -10 -154 -78 -154 -27 0 -48 44
-40 86 13 69 79 107 118 68z"/>
<path d="M2370 5937 c0 -16 18 -165 26 -214 5 -31 8 -33 43 -33 39 0 39 1 112
117 41 65 76 121 77 125 2 4 -10 8 -27 8 -27 0 -35 -9 -84 -87 -29 -48 -58
-88 -64 -90 -6 -2 -13 30 -17 83 -3 47 -9 90 -12 95 -8 14 -54 10 -54 -4z"/>
<path d="M8278 5933 c7 -3 16 -2 19 1 4 3 -2 6 -13 5 -11 0 -14 -3 -6 -6z"/>
<path d="M2710 5914 c-45 -28 -64 -64 -68 -129 -4 -59 -3 -63 28 -88 39 -33
100 -36 148 -7 37 23 39 31 13 47 -15 10 -22 9 -31 -2 -15 -18 -71 -20 -88 -3
-7 7 -12 20 -12 29 0 13 12 17 66 21 58 4 70 8 90 32 29 33 31 69 4 96 -25 25
-113 27 -150 4z m109 -48 c5 -27 -25 -46 -71 -46 -44 0 -48 13 -16 47 28 30
81 29 87 -1z"/>
<path d="M3330 5892 c-45 -22 -80 -83 -80 -142 0 -57 20 -86 68 -101 81 -24
159 25 183 114 29 110 -65 182 -171 129z m105 -49 c12 -12 15 -26 11 -51 -11
-72 -63 -115 -112 -93 -25 11 -26 15 -22 62 8 83 77 129 123 82z"/>
<path d="M3711 5853 c-5 -21 -26 -99 -45 -174 -20 -75 -36 -139 -36 -143 0 -3
13 -6 29 -6 28 0 30 4 42 54 16 74 23 83 44 63 10 -11 33 -17 60 -17 78 0 135
73 135 174 0 71 -66 106 -134 71 -35 -19 -37 -19 -30 0 5 11 -1 15 -25 15 -27
0 -31 -4 -40 -37z m159 -34 c13 -23 5 -85 -13 -110 -19 -24 -56 -41 -77 -34
-45 14 -50 87 -9 139 26 34 83 37 99 5z"/>
<path d="M4062 5860 c-41 -25 -72 -89 -71 -150 0 -51 14 -75 53 -90 25 -9 47
-4 109 28 4 2 4 -3 1 -11 -3 -10 4 -17 22 -21 14 -4 28 -6 29 -4 4 4 65 239
65 249 0 5 -13 9 -30 9 -21 0 -30 -5 -30 -16 0 -13 -5 -12 -26 5 -34 26 -80
27 -122 1z m115 -56 c15 -23 15 -30 2 -67 -40 -114 -155 -92 -120 24 20 68 86
92 118 43z"/>
<path d="M4330 5859 c0 -6 7 -70 16 -141 16 -122 16 -129 -1 -148 -12 -13 -31
-20 -55 -20 -36 0 -50 -12 -50 -41 0 -16 84 -9 116 10 19 11 63 70 117 155 47
74 94 147 103 161 l16 25 -33 0 c-32 -1 -37 -6 -88 -90 -29 -50 -57 -90 -61
-90 -4 0 -11 42 -16 93 -9 90 -9 92 -36 95 -17 2 -28 -1 -28 -9z"/>
<path d="M8421 5819 c-12 -12 -20 -24 -17 -27 3 -3 14 4 24 16 15 17 21 19 32
9 12 -10 12 -9 1 6 -16 21 -13 21 -40 -4z"/>
<path d="M7906 5662 c-3 -5 1 -9 9 -9 8 0 12 4 9 9 -3 4 -7 8 -9 8 -2 0 -6 -4
-9 -8z"/>
<path d="M1760 5371 c-7 -15 -6 -23 6 -35 19 -19 25 -20 48 -3 13 10 16 20 12
35 -9 28 -51 30 -66 3z"/>
<path d="M2301 5183 c-42 -167 -43 -189 -5 -181 15 2 25 28 49 120 17 64 33
119 36 123 4 3 26 -50 50 -119 41 -116 46 -125 73 -130 16 -4 31 -4 33 -2 8 8
90 336 85 341 -3 3 -16 5 -28 5 -25 0 -23 4 -61 -149 -11 -41 -23 -76 -29 -78
-5 -2 -26 48 -47 111 -36 108 -39 114 -69 120 -17 3 -34 6 -38 6 -4 0 -26 -75
-49 -167z"/>
<path d="M1712 5167 c-18 -69 -32 -128 -32 -131 0 -3 13 -6 29 -6 28 0 29 1
59 122 17 68 30 123 29 124 -1 2 -14 5 -28 9 -25 6 -25 5 -57 -118z"/>
<path d="M4158 5109 l-46 -180 31 3 c28 3 32 8 43 51 7 27 15 51 18 54 2 3 19
-22 35 -56 28 -54 35 -61 61 -61 17 0 30 3 30 8 0 4 -14 31 -30 61 -17 30 -30
60 -30 67 0 6 28 37 63 68 l62 55 -34 1 c-27 0 -44 -10 -82 -45 -26 -25 -52
-45 -58 -45 -5 0 2 42 15 93 13 50 24 95 24 100 0 4 -12 7 -28 7 -27 0 -28 -1
-74 -181z"/>
<path d="M1856 5163 c-16 -65 -31 -124 -34 -130 -3 -9 6 -13 26 -13 29 0 30 2
52 83 26 96 51 129 95 125 39 -4 43 -30 17 -131 l-20 -75 25 -7 c14 -3 28 -4
30 -1 3 3 16 48 29 101 25 104 22 135 -17 155 -25 14 -82 5 -99 -15 -18 -21
-29 -19 -23 5 4 17 0 20 -24 20 -29 0 -29 -1 -57 -117z"/>
<path d="M7653 5245 c63 -56 87 -75 87 -67 1 4 9 -3 19 -15 10 -12 21 -19 25
-16 3 4 6 0 6 -7 0 -27 31 15 33 45 2 25 -3 30 -36 40 -21 6 -36 13 -33 16 3
3 -8 10 -24 16 -17 6 -30 7 -30 2 0 -5 -10 -9 -21 -9 -16 0 -19 3 -11 13 8 9
3 12 -19 12 l-30 0 34 -30z"/>
<path d="M2733 5230 c-77 -39 -111 -163 -59 -215 43 -43 119 -45 168 -5 21 17
22 20 7 35 -14 15 -18 15 -47 -2 -38 -22 -85 -9 -90 25 -3 20 0 22 51 22 73 0
121 31 125 81 6 67 -76 98 -155 59z m102 -47 c9 -26 -29 -53 -76 -53 -45 0
-49 13 -17 47 27 28 82 32 93 6z"/>
<path d="M2960 5105 c0 -101 3 -125 14 -125 8 0 21 -3 29 -6 11 -4 28 20 63
85 27 50 52 91 56 91 5 0 8 -40 8 -90 l0 -90 33 0 c32 0 34 3 95 125 l62 125
-28 0 c-25 0 -31 -8 -66 -85 -21 -47 -42 -85 -47 -85 -5 0 -9 41 -9 90 l0 90
-28 0 c-26 0 -34 -9 -78 -91 l-49 -90 -3 90 c-3 89 -3 91 -27 91 l-25 0 0
-125z"/>
<path d="M3350 5195 c0 -13 7 -75 16 -136 l15 -112 -23 -24 c-17 -19 -31 -24
-55 -21 -25 3 -34 -1 -42 -19 -9 -20 -7 -24 14 -29 42 -11 90 5 122 39 27 28
203 299 203 312 0 3 -13 5 -29 5 -25 0 -34 -10 -82 -90 -30 -49 -57 -90 -60
-90 -4 0 -10 30 -13 68 -11 112 -15 122 -42 122 -19 0 -24 -5 -24 -25z"/>
<path d="M3705 5196 c-58 -26 -95 -85 -95 -152 0 -46 14 -70 50 -89 67 -35
150 -6 187 65 40 75 26 147 -32 175 -40 18 -70 19 -110 1z m90 -53 c20 -20 16
-80 -9 -118 -34 -52 -116 -41 -116 15 0 90 76 153 125 103z"/>
<path d="M3965 5178 c-2 -7 -18 -64 -34 -126 l-30 -113 31 3 c30 3 33 7 48 68
27 105 55 139 106 126 13 -4 24 -3 24 1 0 5 3 18 6 31 6 19 2 22 -22 22 -15 0
-38 -10 -51 -22 l-23 -21 0 21 c0 17 -6 22 -25 22 -14 0 -28 -6 -30 -12z"/>
<path d="M7556 5145 c-3 -9 -6 -31 -6 -48 0 -39 -5 -45 -55 -79 -22 -14 -83
-65 -135 -112 -114 -104 -131 -114 -195 -114 -31 0 -71 -10 -105 -25 -30 -13
-66 -27 -80 -30 -15 -4 -33 -21 -45 -44 -19 -37 -22 -38 -85 -44 -36 -3 -92
-16 -125 -29 -33 -12 -89 -25 -124 -27 -53 -4 -71 -10 -108 -39 -24 -19 -50
-34 -58 -34 -31 0 -172 -75 -234 -125 -122 -96 -190 -221 -226 -410 -7 -38
-21 -108 -31 -155 -17 -80 -17 -89 -1 -160 11 -50 20 -164 27 -345 6 -148 15
-304 21 -345 6 -41 12 -93 15 -115 14 -132 52 -242 108 -318 21 -29 22 -37 28
-232 1 -16 -18 -69 -40 -117 -23 -48 -42 -94 -42 -102 0 -7 -7 -32 -15 -55
-13 -39 -13 -45 6 -85 46 -99 114 -83 194 47 9 15 13 15 40 2 33 -17 112 -128
126 -178 18 -64 77 -149 188 -271 62 -69 118 -126 123 -126 5 0 -6 19 -26 41
-42 49 -73 129 -118 299 -31 118 -33 135 -32 295 0 200 17 281 90 432 52 109
111 176 288 327 231 198 362 371 469 621 40 93 139 295 220 447 31 59 62 118
68 130 7 13 16 30 21 38 35 60 89 186 103 240 45 168 47 183 43 325 -4 140 -4
140 -33 170 -113 114 -195 225 -230 311 -16 39 -24 50 -29 39z"/>
<path d="M1800 4699 c-40 -9 -70 -41 -70 -75 0 -19 -5 -24 -25 -24 -18 0 -25
-5 -25 -20 0 -10 7 -23 15 -27 12 -7 11 -22 -10 -103 -14 -52 -25 -98 -25
-102 0 -5 13 -8 29 -8 27 0 29 4 45 68 38 153 32 142 75 142 30 0 40 4 44 19
4 15 -2 20 -34 25 -44 7 -46 12 -23 45 13 18 23 22 44 17 20 -3 33 1 45 14 10
11 16 20 14 20 -2 0 -18 4 -34 8 -17 5 -46 5 -65 1z"/>
<path d="M2731 4498 c-23 -90 -45 -171 -47 -180 -4 -14 1 -18 25 -18 27 0 31
4 41 43 6 23 17 62 23 86 15 54 53 87 91 77 33 -8 34 -42 6 -141 -11 -38 -20
-71 -20 -72 0 -2 13 -3 30 -3 32 0 27 -9 64 137 16 62 11 102 -14 118 -20 13
-80 7 -105 -9 -30 -20 -31 -14 -10 64 8 30 15 56 15 58 0 1 -13 2 -29 2 -28 0
-28 0 -70 -162z"/>
<path d="M2557 4590 c-5 -21 -12 -30 -26 -30 -10 0 -22 -7 -25 -16 -9 -23 -8
-24 15 -24 15 0 19 -5 15 -17 -3 -10 -12 -47 -21 -82 -16 -62 -16 -65 3 -90
32 -43 112 -41 112 3 0 19 -4 22 -23 19 -41 -8 -48 15 -28 92 l17 70 40 0 c33
0 40 4 42 23 3 19 -1 22 -32 22 -34 0 -35 1 -29 30 5 28 4 30 -24 30 -26 0
-31 -5 -36 -30z"/>
<path d="M1950 4583 c-67 -25 -113 -131 -86 -198 18 -42 42 -55 101 -55 87 0
145 63 145 156 -1 52 -12 74 -47 92 -22 12 -86 15 -113 5z m90 -52 c34 -22 1
-134 -45 -151 -32 -12 -71 2 -78 29 -7 29 10 88 34 112 20 20 64 25 89 10z"/>
<path d="M2186 4463 c-16 -65 -31 -124 -34 -130 -3 -9 6 -13 26 -13 28 0 30 4
46 63 33 121 45 137 104 137 22 0 31 6 35 22 11 39 -35 46 -74 12 -22 -19 -28
-17 -22 6 4 17 0 20 -24 20 -29 0 -29 -1 -57 -117z"/>
<path d="M3080 4524 c-45 -28 -64 -64 -68 -129 -4 -59 -3 -63 28 -88 39 -33
100 -36 148 -7 37 23 39 31 13 47 -15 10 -22 9 -31 -2 -15 -18 -71 -20 -88 -3
-7 7 -12 20 -12 29 0 13 12 17 66 21 58 4 70 8 90 32 29 33 31 69 4 96 -25 25
-113 27 -150 4z m109 -48 c5 -27 -25 -46 -71 -46 -44 0 -48 13 -16 47 28 30
81 29 87 -1z"/>
<path d="M3473 4515 c-35 -15 -49 -48 -39 -89 4 -16 21 -29 56 -44 27 -12 50
-27 50 -34 0 -39 -66 -52 -98 -20 -18 18 -20 18 -40 2 l-21 -17 22 -21 c53
-50 162 -34 187 28 19 45 -1 77 -60 99 -33 12 -45 22 -45 36 0 15 8 21 32 23
18 2 40 -1 50 -7 19 -10 53 2 53 19 0 15 -56 40 -87 40 -15 -1 -42 -7 -60 -15z"/>
<path d="M3750 4509 c-43 -18 -70 -51 -86 -106 -19 -64 -12 -106 23 -133 32
-25 59 -25 101 0 l32 20 0 -21 c0 -16 5 -20 27 -17 25 3 29 10 53 103 46 171
44 155 11 155 -17 0 -31 -6 -35 -16 -6 -15 -8 -15 -24 0 -24 21 -71 28 -102
15z m85 -56 c26 -26 15 -101 -20 -131 -56 -47 -111 -9 -94 66 9 40 49 82 79
82 10 0 26 -8 35 -17z"/>
<path d="M3992 4381 c-18 -65 -32 -121 -32 -125 0 -3 13 -6 29 -6 28 0 30 3
47 78 13 54 26 85 45 105 31 31 38 32 64 13 19 -13 19 -16 2 -87 -10 -41 -20
-84 -23 -96 -6 -20 -3 -23 24 -23 29 0 30 2 47 73 29 117 53 148 105 132 25
-8 25 -29 0 -125 -25 -94 -25 -90 8 -90 26 0 28 4 50 88 30 112 27 152 -11
170 -32 15 -91 2 -105 -25 -7 -12 -12 -10 -26 11 -13 20 -25 26 -54 26 -21 0
-47 -7 -58 -15 -25 -19 -38 -19 -30 0 4 11 -2 15 -23 15 -27 0 -29 -3 -59
-119z"/>
<path d="M8400 4478 c0 -4 4 -8 9 -8 6 0 12 4 15 8 3 5 -1 9 -9 9 -8 0 -15 -4
-15 -9z"/>
<path d="M4503 4460 c-80 -49 -94 -188 -23 -225 40 -21 99 -19 138 5 37 23 39
31 14 46 -14 9 -22 8 -37 -2 -38 -28 -105 -8 -105 32 0 10 14 14 58 14 72 0
117 25 127 70 6 25 2 37 -16 56 -29 31 -108 34 -156 4z m116 -44 c5 -28 -26
-46 -76 -46 -50 0 -52 7 -18 44 31 33 87 34 94 2z"/>
<path d="M8331 4466 c-7 -8 -8 -17 -3 -20 6 -3 13 1 16 10 9 23 2 28 -13 10z"/>
<path d="M2350 3990 c-40 -10 -70 -42 -70 -76 0 -17 -6 -24 -20 -24 -28 0 -38
-29 -16 -45 16 -12 16 -18 -4 -96 -12 -46 -23 -92 -26 -101 -4 -14 1 -18 25
-18 33 0 29 -8 67 143 l16 67 38 0 c25 0 40 5 44 16 9 23 8 24 -13 24 -32 0
-51 11 -51 30 0 26 26 43 58 37 21 -4 31 -1 40 13 6 11 8 21 4 23 -19 11 -60
14 -92 7z"/>
<path d="M2548 3981 c-39 -8 -68 -36 -75 -71 -3 -20 -12 -30 -23 -30 -19 0
-34 -25 -24 -41 3 -5 11 -9 18 -9 9 0 5 -28 -15 -106 l-28 -105 32 3 c31 3 32
4 56 105 l25 102 40 3 c55 4 62 33 12 42 -27 5 -36 12 -36 26 0 25 35 43 66
36 17 -5 26 -1 34 13 5 11 7 22 3 24 -18 10 -60 14 -85 8z"/>
<path d="M3274 3929 c-17 -5 -38 -17 -47 -26 -13 -16 -14 -21 -1 -37 13 -19
14 -19 34 -1 37 33 103 15 93 -25 -3 -11 -27 -33 -53 -50 -44 -28 -60 -47 -60
-71 0 -17 43 -9 64 12 12 11 40 33 63 49 42 30 61 70 49 108 -12 35 -87 57
-142 41z"/>
<path d="M1713 3890 c-63 -38 -94 -123 -69 -184 17 -42 42 -56 96 -56 74 0
133 49 94 77 -15 11 -21 10 -38 -6 -36 -33 -83 -31 -96 3 -11 31 4 90 31 117
23 23 72 25 94 3 14 -14 20 -15 40 -4 19 10 22 17 14 31 -23 43 -111 53 -166
19z"/>
<path d="M1982 3880 c-39 -24 -71 -89 -72 -143 0 -30 7 -46 30 -69 29 -28 35
-30 90 -26 68 5 93 22 121 83 45 97 5 175 -88 175 -30 0 -60 -7 -81 -20z m116
-42 c19 -19 14 -72 -10 -108 -28 -40 -57 -52 -89 -36 -61 30 -17 156 55 156
17 0 37 -5 44 -12z"/>
<path d="M2695 3860 c-88 -36 -121 -186 -52 -235 33 -23 118 -20 151 6 25 19
26 23 12 37 -13 13 -18 13 -49 -2 -51 -24 -97 -2 -97 46 0 5 12 7 28 3 70 -15
162 34 162 86 0 36 -44 69 -92 68 -24 0 -52 -4 -63 -9z m79 -36 c20 -8 21 -38
2 -53 -8 -7 -36 -11 -63 -9 l-48 3 32 33 c31 32 47 37 77 26z"/>
<path d="M2970 3842 c-78 -41 -104 -169 -45 -219 45 -39 175 -22 175 23 0 22
-22 26 -61 10 -43 -18 -82 -3 -87 32 -3 20 0 22 22 16 41 -10 125 15 143 42
22 35 19 75 -7 96 -29 23 -95 23 -140 0z m104 -45 c16 -26 -16 -47 -71 -47
-45 0 -51 6 -30 32 31 39 81 47 101 15z"/>
<path d="M3210 3639 c-9 -15 -8 -24 1 -35 18 -21 57 -18 64 6 14 44 -44 69
-65 29z"/>
<path d="M7970 2880 c0 -12 29 -45 35 -39 2 2 -5 15 -16 28 -10 13 -19 18 -19
11z"/>
<path d="M7680 2857 c0 -4 -5 -5 -12 -1 -7 4 -8 3 -4 -5 4 -6 11 -9 16 -6 4 3
13 -2 20 -10 9 -10 9 -15 1 -15 -6 0 -11 4 -11 10 0 5 -7 7 -15 4 -8 -3 -14
-9 -13 -12 0 -4 0 -20 -1 -36 l-1 -30 -25 34 c-20 28 -25 30 -25 14 0 -11 6
-26 13 -34 10 -12 9 -12 -3 -3 -20 14 -52 2 -41 -15 4 -7 18 -14 29 -15 12 -1
22 -5 22 -9 0 -4 4 -8 10 -8 5 0 7 6 4 14 -3 8 3 16 15 19 15 3 19 11 16 27
-6 32 3 42 26 29 25 -13 36 -5 20 14 -6 8 -9 21 -6 29 4 9 -1 14 -15 14 -11 0
-20 -4 -20 -9z"/>
<path d="M7910 2810 c0 -5 5 -10 10 -10 6 0 10 5 10 10 0 6 -4 10 -10 10 -5 0
-10 -4 -10 -10z"/>
<path d="M7980 2800 c0 -5 5 -10 10 -10 7 0 7 -6 0 -20 -8 -16 -8 -18 4 -14 8
3 16 16 19 30 3 18 0 24 -14 24 -11 0 -19 -4 -19 -10z"/>
<path d="M7863 2774 c0 -8 6 -14 14 -14 7 0 13 4 13 9 0 5 -6 11 -13 14 -8 3
-14 -1 -14 -9z"/>
<path d="M7956 2782 c-3 -5 1 -9 9 -9 8 0 12 4 9 9 -3 4 -7 8 -9 8 -2 0 -6 -4
-9 -8z"/>
<path d="M7706 2751 c-4 -5 -2 -12 4 -16 5 -3 10 0 10 7 0 10 3 9 11 -2 9 -12
10 -12 7 -1 -5 18 -24 25 -32 12z"/>
<path d="M7756 2706 c3 -7 -2 -16 -11 -20 -9 -3 -13 -10 -10 -16 9 -15 25 -12
25 4 0 8 5 16 12 18 6 2 8 10 4 16 -10 17 -27 15 -20 -2z"/>
<path d="M7957 2700 c7 -25 23 -37 23 -17 0 8 -6 20 -14 26 -12 10 -13 8 -9
-9z"/>
<path d="M7626 2695 c6 -14 46 -17 42 -3 -2 6 -14 12 -25 13 -12 1 -19 -3 -17
-10z"/>
<path d="M7336 2305 c4 -8 10 -12 15 -9 11 6 2 24 -11 24 -5 0 -7 -7 -4 -15z"/>
<path d="M7250 2250 c-9 -6 -10 -10 -3 -10 6 0 15 5 18 10 8 12 4 12 -15 0z"/>
<path d="M6726 1888 c-6 -26 9 -47 24 -32 10 10 2 54 -10 54 -4 0 -10 -10 -14
-22z m24 -18 c0 -5 -2 -10 -4 -10 -3 0 -8 5 -11 10 -3 6 -1 10 4 10 6 0 11 -4
11 -10z"/>
<path d="M6725 1830 c-5 -9 -4 -15 3 -18 8 -2 7 -8 -4 -19 -8 -8 -13 -18 -10
-20 7 -7 40 27 42 43 1 8 -1 12 -6 9 -5 -3 -10 0 -12 7 -3 9 -7 8 -13 -2z"/>
<path d="M7005 1220 c-3 -5 -2 -10 4 -10 5 0 13 5 16 10 3 6 2 10 -4 10 -5 0
-13 -4 -16 -10z"/>
<path d="M7120 1179 c0 -5 -4 -8 -9 -5 -5 3 -14 -1 -21 -9 -11 -14 -10 -14 14
-5 15 5 33 7 39 3 7 -4 6 1 -2 10 -16 20 -21 21 -21 6z"/>
<path d="M6795 1140 c3 -5 1 -10 -6 -10 -7 0 -10 -3 -6 -6 3 -3 16 1 29 10
l22 16 -22 0 c-13 0 -20 -4 -17 -10z"/>
<path d="M6738 1083 c7 -3 16 -2 19 1 4 3 -2 6 -13 5 -11 0 -14 -3 -6 -6z"/>
<path d="M6763 1073 c-18 -7 -16 -23 2 -23 8 0 18 -12 21 -26 4 -16 10 -22 16
-16 14 14 5 47 -12 47 -8 1 -14 6 -12 13 1 7 1 12 0 11 -2 0 -9 -3 -15 -6z"/>
<path d="M6660 1002 c0 -7 10 -28 23 -46 18 -28 24 -31 35 -20 8 9 9 14 2 14
-6 0 -8 5 -5 10 7 12 -12 40 -27 40 -5 0 -4 -9 2 -20 6 -11 8 -20 6 -20 -3 0
-12 12 -20 28 -8 15 -15 21 -16 14z"/>
<path d="M6660 931 c0 -5 7 -12 16 -15 14 -5 15 -4 4 9 -14 17 -20 19 -20 6z"/>
<path d="M6526 904 c-10 -26 -7 -36 11 -32 9 2 17 13 18 26 2 25 -20 30 -29 6z"/>
</g>
</svg>
